<?xml version="1.0" encoding="utf-8"?>
<!-- Generator: Adobe Illustrator 15.0.0, SVG Export Plug-In . SVG Version: 6.00 Build 0)  -->
<!DOCTYPE svg PUBLIC "-//W3C//DTD SVG 1.1//EN" "http://www.w3.org/Graphics/SVG/1.1/DTD/svg11.dtd">
<svg version="1.1" xmlns="http://www.w3.org/2000/svg" xmlns:xlink="http://www.w3.org/1999/xlink" x="0px" y="0px"
	 width="642.77px" height="20px" viewBox="0 0 642.77 20" enable-background="new 0 0 642.77 20" xml:space="preserve">
<g id="Layer_2">
	<rect x="-34.334" fill="#FFFFFF" width="677.104" height="20"/>
</g>
<g id="Layer_1">
	<g>
		<path fill="#8ED8F8" d="M3.217,1.33h14.349v2.188h-5.988v15.013H9.105V3.518H3.217V1.33z"/>
		<path fill="#8ED8F8" d="M37.035,1.354h2.459v17.177h-2.459v-7.476h-9.651v7.476h-2.459V1.354h2.459v7.427h9.651V1.354z"/>
		<path fill="#8ED8F8" d="M48.317,1.354h9.737v2.188h-7.278v5.238h7.033v2.201h-7.033v5.336h7.513v2.188h-9.972V1.354z"/>
		<path fill="#8ED8F8" d="M87.259,10.072h5.766v7.278c-2.114,0.918-4.213,1.377-6.295,1.377c-2.845,0-5.117-0.829-6.817-2.489
			c-1.701-1.66-2.552-3.707-2.552-6.142c0-2.565,0.882-4.701,2.644-6.405c1.763-1.705,3.972-2.558,6.627-2.558
			c0.968,0,1.886,0.104,2.755,0.313c0.868,0.209,1.967,0.592,3.295,1.149v2.508c-2.05-1.188-4.082-1.782-6.099-1.782
			c-1.877,0-3.459,0.64-4.746,1.918s-1.93,2.849-1.93,4.709c0,1.951,0.643,3.545,1.93,4.783c1.287,1.237,2.942,1.856,4.968,1.856
			c0.983,0,2.159-0.226,3.528-0.677l0.233-0.073V12.26h-3.307V10.072z"/>
		<path fill="#8ED8F8" d="M101.676,1.354h2.459v17.177h-2.459V1.354z"/>
		<path fill="#8ED8F8" d="M113.056,18.531V1.354h4.304c1.737,0,3.117,0.431,4.138,1.291c1.021,0.861,1.53,2.025,1.53,3.492
			c0,1-0.25,1.865-0.75,2.595s-1.217,1.274-2.151,1.635c0.549,0.361,1.086,0.853,1.61,1.476s1.263,1.709,2.213,3.258
			c0.599,0.976,1.078,1.709,1.438,2.201l0.91,1.229h-2.926l-0.749-1.132c-0.025-0.041-0.074-0.11-0.147-0.209l-0.479-0.677
			l-0.761-1.255l-0.823-1.341c-0.507-0.705-0.973-1.267-1.395-1.684c-0.423-0.417-0.805-0.719-1.146-0.902
			c-0.34-0.184-0.913-0.276-1.717-0.276h-0.641v7.476H113.056z M116.253,3.445h-0.738v5.422h0.935c1.246,0,2.101-0.106,2.563-0.319
			c0.464-0.213,0.824-0.535,1.082-0.966c0.259-0.43,0.388-0.92,0.388-1.469c0-0.541-0.144-1.031-0.431-1.47s-0.69-0.748-1.211-0.928
			C118.32,3.535,117.458,3.445,116.253,3.445z"/>
		<path fill="#8ED8F8" d="M133.228,1.354h2.459v14.939h7.733v2.237h-10.192V1.354z"/>
		<path fill="#8ED8F8" d="M181.373,1.354h2.452l-6.944,17.251h-0.54l-5.616-13.968l-5.674,13.968h-0.528L157.6,1.354h2.478
			l4.733,11.841l4.766-11.841h2.324l4.787,11.841L181.373,1.354z"/>
		<path fill="#8ED8F8" d="M190.792,1.354h2.459v17.177h-2.459V1.354z"/>
		<path fill="#8ED8F8" d="M200.636,1.33h14.349v2.188h-5.988v15.013h-2.472V3.518h-5.889V1.33z"/>
		<path fill="#8ED8F8" d="M234.454,1.354h2.459v17.177h-2.459v-7.476h-9.651v7.476h-2.459V1.354h2.459v7.427h9.651V1.354z"/>
		<path fill="#8ED8F8" d="M260.732,1.256h1.728l7.702,17.274h-2.517l-2.29-5.09h-7.328l-2.146,5.09h-2.527L260.732,1.256z
			 M264.345,11.252l-2.771-6.222l-2.57,6.222H264.345z"/>
		<path fill="#8ED8F8" d="M277.079,1.354h2.459v14.939h7.733v2.237h-10.192V1.354z"/>
		<path fill="#8ED8F8" d="M294.46,1.354h2.459v14.939h7.733v2.237H294.46V1.354z"/>
		<path fill="#8ED8F8" d="M319.263,1.33h14.349v2.188h-5.988v15.013h-2.472V3.518h-5.889V1.33z"/>
		<path fill="#8ED8F8" d="M353.081,1.354h2.459v17.177h-2.459v-7.476h-9.651v7.476h-2.459V1.354h2.459v7.427h9.651V1.354z"/>
		<path fill="#8ED8F8" d="M364.363,1.354h9.737v2.188h-7.278v5.238h7.033v2.201h-7.033v5.336h7.513v2.188h-9.972V1.354z"/>
		<path fill="#8ED8F8" d="M408.824,14.547v2.705c-1.804,0.983-3.886,1.475-6.246,1.475c-1.918,0-3.546-0.385-4.882-1.155
			s-2.394-1.832-3.172-3.185s-1.168-2.815-1.168-4.39c0-2.5,0.892-4.603,2.674-6.307c1.783-1.705,3.981-2.558,6.597-2.558
			c1.804,0,3.808,0.472,6.013,1.414v2.644c-2.009-1.147-3.972-1.722-5.89-1.722c-1.967,0-3.601,0.621-4.899,1.862
			c-1.3,1.242-1.949,2.798-1.949,4.666c0,1.886,0.64,3.435,1.918,4.647c1.279,1.214,2.914,1.82,4.906,1.82
			C404.808,16.465,406.84,15.826,408.824,14.547z"/>
		<path fill="#8ED8F8" d="M416.958,18.531V1.354h4.304c1.737,0,3.117,0.431,4.138,1.291c1.021,0.861,1.53,2.025,1.53,3.492
			c0,1-0.25,1.865-0.75,2.595s-1.217,1.274-2.151,1.635c0.549,0.361,1.086,0.853,1.61,1.476s1.263,1.709,2.213,3.258
			c0.599,0.976,1.078,1.709,1.438,2.201l0.91,1.229h-2.926l-0.749-1.132c-0.025-0.041-0.074-0.11-0.147-0.209l-0.479-0.677
			l-0.761-1.255l-0.823-1.341c-0.507-0.705-0.973-1.267-1.395-1.684c-0.423-0.417-0.805-0.719-1.146-0.902
			c-0.34-0.184-0.913-0.276-1.717-0.276h-0.641v7.476H416.958z M420.155,3.445h-0.738v5.422h0.935c1.246,0,2.101-0.106,2.563-0.319
			c0.464-0.213,0.824-0.535,1.082-0.966c0.259-0.43,0.388-0.92,0.388-1.469c0-0.541-0.144-1.031-0.431-1.47s-0.69-0.748-1.211-0.928
			C422.223,3.535,421.36,3.445,420.155,3.445z"/>
		<path fill="#8ED8F8" d="M442.614,1.256h1.728l7.702,17.274h-2.517l-2.29-5.09h-7.328l-2.146,5.09h-2.527L442.614,1.256z
			 M446.227,11.252l-2.771-6.222l-2.57,6.222H446.227z"/>
		<path fill="#8ED8F8" d="M458.985,1.354h9.16v2.188h-6.701v4.796h6.701v2.188h-6.701v8.004h-2.459V1.354z"/>
		<path fill="#8ED8F8" d="M474.35,1.33h14.349v2.188h-5.988v15.013h-2.472V3.518h-5.889V1.33z"/>
		<path fill="#8ED8F8" d="M512.344,11.334l-1.869-1.136c-1.172-0.716-2.006-1.42-2.502-2.112c-0.496-0.693-0.743-1.49-0.743-2.392
			c0-1.353,0.469-2.451,1.407-3.295c0.938-0.845,2.158-1.267,3.658-1.267c1.435,0,2.75,0.402,3.946,1.208v2.791
			c-1.237-1.19-2.569-1.786-3.996-1.786c-0.803,0-1.463,0.186-1.979,0.558c-0.516,0.371-0.774,0.847-0.774,1.427
			c0,0.514,0.19,0.996,0.57,1.445c0.381,0.448,0.992,0.92,1.836,1.414l1.878,1.111c2.095,1.251,3.143,2.845,3.143,4.778
			c0,1.377-0.461,2.496-1.384,3.356c-0.922,0.861-2.121,1.291-3.596,1.291c-1.697,0-3.242-0.521-4.636-1.564V14.04
			c1.328,1.683,2.865,2.524,4.61,2.524c0.771,0,1.412-0.215,1.925-0.644c0.512-0.429,0.769-0.966,0.769-1.611
			C514.606,13.264,513.852,12.272,512.344,11.334z"/>
		<path fill="#8ED8F8" d="M536.61,1.354h2.471v9.75c0,1.32-0.096,2.316-0.289,2.988c-0.192,0.672-0.43,1.231-0.713,1.678
			c-0.282,0.447-0.629,0.847-1.039,1.199c-1.36,1.172-3.14,1.758-5.336,1.758c-2.237,0-4.032-0.581-5.385-1.745
			c-0.41-0.361-0.757-0.765-1.039-1.212c-0.283-0.446-0.517-0.993-0.701-1.641s-0.276-1.664-0.276-3.05V1.354h2.471v9.75
			c0,1.615,0.185,2.738,0.554,3.369c0.369,0.632,0.931,1.138,1.685,1.519s1.644,0.572,2.668,0.572c1.459,0,2.647-0.382,3.565-1.144
			c0.483-0.41,0.832-0.894,1.045-1.451s0.32-1.513,0.32-2.865V1.354z"/>
		<path fill="#8ED8F8" d="M547.388,18.531V1.33h5.447c1.64,0,2.946,0.442,3.922,1.328c0.976,0.885,1.463,2.074,1.463,3.565
			c0,1-0.25,1.886-0.75,2.656s-1.185,1.33-2.053,1.678c-0.869,0.349-2.115,0.522-3.738,0.522h-1.819v7.451H547.388z M552.404,3.518
			h-2.545v5.373h2.692c1,0,1.771-0.235,2.312-0.707c0.541-0.471,0.812-1.146,0.812-2.022C555.675,4.4,554.585,3.518,552.404,3.518z"
			/>
		<path fill="#8ED8F8" d="M565.26,18.531V1.33h5.447c1.64,0,2.946,0.442,3.922,1.328c0.976,0.885,1.463,2.074,1.463,3.565
			c0,1-0.25,1.886-0.75,2.656s-1.185,1.33-2.053,1.678c-0.869,0.349-2.115,0.522-3.738,0.522h-1.819v7.451H565.26z M570.276,3.518
			h-2.545v5.373h2.692c1,0,1.771-0.235,2.312-0.707c0.541-0.471,0.812-1.146,0.812-2.022C573.547,4.4,572.457,3.518,570.276,3.518z"
			/>
		<path fill="#8ED8F8" d="M583.268,1.354h2.459v14.939h7.733v2.237h-10.192V1.354z"/>
		<path fill="#8ED8F8" d="M600.673,1.354h2.459v17.177h-2.459V1.354z"/>
		<path fill="#8ED8F8" d="M611.979,1.354h9.737v2.188h-7.278v5.238h7.033v2.201h-7.033v5.336h7.513v2.188h-9.972V1.354z"/>
		<path fill="#8ED8F8" d="M633.859,11.334l-1.869-1.136c-1.172-0.716-2.006-1.42-2.502-2.112c-0.496-0.693-0.743-1.49-0.743-2.392
			c0-1.353,0.469-2.451,1.407-3.295c0.938-0.845,2.158-1.267,3.658-1.267c1.435,0,2.75,0.402,3.946,1.208v2.791
			c-1.237-1.19-2.569-1.786-3.996-1.786c-0.803,0-1.463,0.186-1.979,0.558c-0.516,0.371-0.774,0.847-0.774,1.427
			c0,0.514,0.19,0.996,0.57,1.445c0.381,0.448,0.992,0.92,1.836,1.414l1.878,1.111c2.095,1.251,3.143,2.845,3.143,4.778
			c0,1.377-0.461,2.496-1.384,3.356c-0.922,0.861-2.121,1.291-3.596,1.291c-1.697,0-3.242-0.521-4.636-1.564V14.04
			c1.328,1.683,2.865,2.524,4.61,2.524c0.771,0,1.412-0.215,1.925-0.644c0.512-0.429,0.769-0.966,0.769-1.611
			C636.122,13.264,635.367,12.272,633.859,11.334z"/>
	</g>
</g>
</svg>
