<?xml version="1.0" encoding="utf-8"?>
<!-- Generator: Adobe Illustrator 15.0.0, SVG Export Plug-In . SVG Version: 6.00 Build 0)  -->
<!DOCTYPE svg PUBLIC "-//W3C//DTD SVG 1.1//EN" "http://www.w3.org/Graphics/SVG/1.1/DTD/svg11.dtd">
<svg version="1.1" xmlns="http://www.w3.org/2000/svg" xmlns:xlink="http://www.w3.org/1999/xlink" x="0px" y="0px"
	 width="628.504px" height="20px" viewBox="0 0 628.504 20" enable-background="new 0 0 628.504 20" xml:space="preserve">
<g id="Layer_2">
	<rect x="1.504" fill="#FFFFFF" width="627" height="20"/>
</g>
<g id="Layer_1">
	<g>
		<path fill="#8ED8F8" d="M16.704,1.01v1.107H10.26v16.069H8.92V2.117H2.478V1.01H16.704z"/>
		<path fill="#8ED8F8" d="M37.969,1.01v17.177h-1.34v-8.14h-11.46v8.14h-1.327V1.01h1.327V8.94h11.46V1.01H37.969z"/>
		<path fill="#8ED8F8" d="M56.382,1.01v1.107h-8.041v6.872h7.832v1.119h-7.832v6.972h8.237v1.106h-9.565V1.01H56.382z"/>
		<path fill="#8ED8F8" d="M90.775,2.252v1.5c-2.033-1.155-4.062-1.733-6.087-1.733c-2.172,0-3.979,0.721-5.422,2.164
			c-1.442,1.442-2.164,3.25-2.164,5.422s0.714,3.978,2.14,5.416s3.364,2.158,5.815,2.158c1.771,0,3.34-0.353,4.709-1.058v-4.636
			h-3.627v-1.106h4.968v6.578c-2.025,0.967-4.058,1.451-6.099,1.451c-2.664,0-4.888-0.845-6.67-2.533
			c-1.783-1.688-2.675-3.795-2.675-6.319c0-2.509,0.875-4.597,2.625-6.265s3.949-2.502,6.597-2.502
			C86.688,0.789,88.652,1.276,90.775,2.252z"/>
		<path fill="#8ED8F8" d="M100.851,1.01v17.177h-1.328V1.01H100.851z"/>
		<path fill="#8ED8F8" d="M109.822,1.01h4.401c1.844,0,3.254,0.4,4.229,1.199s1.463,1.879,1.463,3.239
			c0,1.984-1.09,3.378-3.271,4.181c0.565,0.271,1.328,1.144,2.287,2.619l3.886,5.938h-1.572l-2.992-4.708
			c-1-1.574-1.778-2.556-2.335-2.945c-0.558-0.39-1.373-0.584-2.446-0.584h-2.323v8.237h-1.327V1.01z M111.149,2.117v6.725h2.853
			c1.451,0,2.56-0.293,3.326-0.879s1.149-1.416,1.149-2.489c0-1.058-0.39-1.882-1.168-2.472s-1.897-0.885-3.356-0.885H111.149z"/>
		<path fill="#8ED8F8" d="M130.62,1.01v16.07h8.496v1.106h-9.823V1.01H130.62z"/>
		<path fill="#8ED8F8" d="M166.666,3.862l-5.757,14.496h-0.358L153.639,1.01h1.363l5.688,14.251l5.766-14.251h0.412l5.736,14.251
			l5.702-14.251h1.361l-6.925,17.349h-0.32L166.666,3.862z"/>
		<path fill="#8ED8F8" d="M187.95,1.01v17.177h-1.328V1.01H187.95z"/>
		<path fill="#8ED8F8" d="M209.252,1.01v1.107h-6.443v16.069h-1.34V2.117h-6.442V1.01H209.252z"/>
		<path fill="#8ED8F8" d="M230.518,1.01v17.177h-1.34v-8.14h-11.46v8.14h-1.327V1.01h1.327V8.94h11.46V1.01H230.518z"/>
		<path fill="#8ED8F8" d="M256.833,0.887l7.94,17.3h-1.393l-2.718-5.938h-8.399l-2.708,5.938h-1.393l7.939-17.3H256.833z
			 M260.158,11.142l-3.701-8.091l-3.688,8.091H260.158z"/>
		<path fill="#8ED8F8" d="M273.215,1.01v16.07h8.496v1.106h-9.823V1.01H273.215z"/>
		<path fill="#8ED8F8" d="M290.067,1.01v16.07h8.496v1.106h-9.823V1.01H290.067z"/>
		<path fill="#8ED8F8" d="M326.427,1.01v1.107h-6.443v16.069h-1.34V2.117h-6.442V1.01H326.427z"/>
		<path fill="#8ED8F8" d="M347.693,1.01v17.177h-1.34v-8.14h-11.46v8.14h-1.327V1.01h1.327V8.94h11.46V1.01H347.693z"/>
		<path fill="#8ED8F8" d="M366.106,1.01v1.107h-8.041v6.872h7.832v1.119h-7.832v6.972h8.237v1.106h-9.565V1.01H366.106z"/>
		<path fill="#8ED8F8" d="M400.423,2.228v1.45c-2.082-1.106-4.123-1.659-6.123-1.659c-2.131,0-3.914,0.726-5.349,2.176
			c-1.435,1.451-2.151,3.263-2.151,5.435c0,2.197,0.722,4.004,2.164,5.422c1.442,1.419,3.283,2.128,5.521,2.128
			c1.869,0,3.905-0.586,6.11-1.759v1.377c-2.032,1.074-4.062,1.611-6.086,1.611c-2.614,0-4.793-0.838-6.535-2.515
			c-1.741-1.676-2.612-3.765-2.612-6.265c0-2.517,0.89-4.618,2.668-6.308c1.778-1.688,3.897-2.532,6.356-2.532
			C396.321,0.789,398.333,1.269,400.423,2.228z"/>
		<path fill="#8ED8F8" d="M408.202,1.01h4.401c1.844,0,3.254,0.4,4.229,1.199s1.463,1.879,1.463,3.239
			c0,1.984-1.09,3.378-3.271,4.181c0.565,0.271,1.328,1.144,2.287,2.619l3.886,5.938h-1.572l-2.992-4.708
			c-1-1.574-1.778-2.556-2.335-2.945c-0.558-0.39-1.373-0.584-2.446-0.584h-2.323v8.237h-1.327V1.01z M409.529,2.117v6.725h2.853
			c1.451,0,2.56-0.293,3.326-0.879s1.149-1.416,1.149-2.489c0-1.058-0.39-1.882-1.168-2.472s-1.897-0.885-3.356-0.885H409.529z"/>
		<path fill="#8ED8F8" d="M434.449,0.887l7.94,17.3h-1.393l-2.718-5.938h-8.399l-2.708,5.938h-1.393l7.939-17.3H434.449z
			 M437.773,11.142l-3.701-8.091l-3.688,8.091H437.773z"/>
		<path fill="#8ED8F8" d="M458.319,1.01v1.107h-7.513v6.528h6.774v1.106h-6.774v8.435h-1.328V1.01H458.319z"/>
		<path fill="#8ED8F8" d="M477.9,1.01v1.107h-6.443v16.069h-1.34V2.117h-6.442V1.01H477.9z"/>
		<path fill="#8ED8F8" d="M505.148,1.871v1.463c-1.491-0.877-2.774-1.315-3.848-1.315c-1.033,0-1.896,0.313-2.589,0.94
			c-0.692,0.627-1.038,1.403-1.038,2.33c0,0.664,0.204,1.262,0.614,1.795s1.267,1.045,2.569,1.537
			c1.304,0.491,2.255,0.901,2.853,1.229c0.599,0.328,1.106,0.803,1.525,1.426c0.418,0.623,0.627,1.431,0.627,2.423
			c0,1.319-0.484,2.434-1.451,3.344s-2.147,1.365-3.541,1.365c-1.426,0-2.894-0.5-4.401-1.5v-1.562
			c1.664,1.221,3.106,1.832,4.327,1.832c1.017,0,1.875-0.33,2.576-0.99s1.052-1.47,1.052-2.429c0-0.729-0.218-1.388-0.652-1.974
			c-0.434-0.586-1.314-1.134-2.643-1.644c-1.327-0.51-2.275-0.92-2.846-1.231c-0.57-0.311-1.054-0.756-1.451-1.333
			c-0.398-0.577-0.598-1.321-0.598-2.23c0-1.262,0.484-2.337,1.451-3.226s2.131-1.333,3.492-1.333
			C502.513,0.789,503.836,1.149,505.148,1.871z"/>
		<path fill="#8ED8F8" d="M526.586,1.01h1.327v9.369c0,2.565-0.668,4.545-2.004,5.938s-3.065,2.091-5.188,2.091
			c-2.114,0-3.84-0.688-5.176-2.066c-1.337-1.377-2.005-3.262-2.005-5.655V1.01h1.341v9.628c0,2.049,0.543,3.651,1.629,4.807
			c1.086,1.156,2.489,1.734,4.211,1.734c1.737,0,3.149-0.584,4.235-1.753c1.086-1.168,1.63-2.825,1.63-4.973V1.01z"/>
		<path fill="#8ED8F8" d="M536.515,1.01h4.734c1.812,0,3.198,0.406,4.162,1.218c0.963,0.812,1.444,1.918,1.444,3.319
			c0,1.418-0.485,2.541-1.457,3.369s-2.396,1.242-4.272,1.242h-3.283v8.028h-1.328V1.01z M537.843,2.117v6.934h3.197
			c1.434,0,2.524-0.303,3.271-0.909c0.745-0.606,1.118-1.463,1.118-2.57c0-1.057-0.364-1.897-1.094-2.521
			c-0.729-0.622-1.774-0.934-3.136-0.934H537.843z"/>
		<path fill="#8ED8F8" d="M554.387,1.01h4.734c1.812,0,3.198,0.406,4.162,1.218c0.963,0.812,1.444,1.918,1.444,3.319
			c0,1.418-0.485,2.541-1.457,3.369s-2.396,1.242-4.272,1.242h-3.283v8.028h-1.328V1.01z M555.715,2.117v6.934h3.197
			c1.434,0,2.524-0.303,3.271-0.909c0.745-0.606,1.118-1.463,1.118-2.57c0-1.057-0.364-1.897-1.094-2.521
			c-0.729-0.622-1.774-0.934-3.136-0.934H555.715z"/>
		<path fill="#8ED8F8" d="M573.612,1.01v16.07h8.496v1.106h-9.823V1.01H573.612z"/>
		<path fill="#8ED8F8" d="M590.439,1.01v17.177h-1.328V1.01H590.439z"/>
		<path fill="#8ED8F8" d="M608.803,1.01v1.107h-8.041v6.872h7.832v1.119h-7.832v6.972H609v1.106h-9.565V1.01H608.803z"/>
		<path fill="#8ED8F8" d="M624.868,1.871v1.463c-1.491-0.877-2.774-1.315-3.848-1.315c-1.033,0-1.896,0.313-2.589,0.94
			c-0.692,0.627-1.038,1.403-1.038,2.33c0,0.664,0.204,1.262,0.614,1.795s1.267,1.045,2.569,1.537
			c1.304,0.491,2.255,0.901,2.853,1.229c0.599,0.328,1.106,0.803,1.525,1.426c0.418,0.623,0.627,1.431,0.627,2.423
			c0,1.319-0.484,2.434-1.451,3.344s-2.147,1.365-3.541,1.365c-1.426,0-2.894-0.5-4.401-1.5v-1.562
			c1.664,1.221,3.106,1.832,4.327,1.832c1.017,0,1.875-0.33,2.576-0.99s1.052-1.47,1.052-2.429c0-0.729-0.218-1.388-0.652-1.974
			c-0.434-0.586-1.314-1.134-2.643-1.644c-1.327-0.51-2.275-0.92-2.846-1.231c-0.57-0.311-1.054-0.756-1.451-1.333
			c-0.398-0.577-0.598-1.321-0.598-2.23c0-1.262,0.484-2.337,1.451-3.226s2.131-1.333,3.492-1.333
			C622.233,0.789,623.556,1.149,624.868,1.871z"/>
	</g>
</g>
</svg>
