<?xml version="1.0" encoding="utf-8"?>
<!-- Generator: Adobe Illustrator 15.0.0, SVG Export Plug-In . SVG Version: 6.00 Build 0)  -->
<!DOCTYPE svg PUBLIC "-//W3C//DTD SVG 1.1//EN" "http://www.w3.org/Graphics/SVG/1.1/DTD/svg11.dtd">
<svg version="1.1" id="Layer_1" xmlns="http://www.w3.org/2000/svg" xmlns:xlink="http://www.w3.org/1999/xlink" x="0px" y="0px"
	 width="400px" height="400px" viewBox="0 0 400 400" enable-background="new 0 0 400 400" xml:space="preserve">
<path opacity="0.6" fill="#BFE1C4" d="M362.314,43.988c-4.005,0-4.005,6.212,0,6.212C366.322,50.2,366.322,43.988,362.314,43.988z"
	/>
<path opacity="0.6" fill="#BFE1C4" d="M59.855,287.776c-4.005,0-4.005,6.212,0,6.212C63.863,293.988,63.863,287.776,59.855,287.776z
	"/>
<path opacity="0.6" fill="#C4E1F1" d="M19.878,6.931c-4.005,0-4.005,6.211,0,6.211S23.883,6.931,19.878,6.931z"/>
<path opacity="0.6" fill="#FAE990" d="M298.459,196.894c-4.005,0-4.005,6.212,0,6.212S302.464,196.894,298.459,196.894z"/>
<path opacity="0.6" fill="#F1BACF" d="M113.855,109.988c-4.006,0-4.006,6.211,0,6.211
	C117.86,116.199,117.86,109.988,113.855,109.988z"/>
<path opacity="0.6" fill="#F1BACF" d="M250.855,366.777c-4.006,0-4.006,6.211,0,6.211
	C254.86,372.988,254.86,366.777,250.855,366.777z"/>
</svg>
