<?xml version="1.0" encoding="utf-8"?>
<!-- Generator: Adobe Illustrator 15.0.0, SVG Export Plug-In . SVG Version: 6.00 Build 0)  -->
<!DOCTYPE svg PUBLIC "-//W3C//DTD SVG 1.1//EN" "http://www.w3.org/Graphics/SVG/1.1/DTD/svg11.dtd">
<svg version="1.1" id="Layer_1" xmlns="http://www.w3.org/2000/svg" xmlns:xlink="http://www.w3.org/1999/xlink" x="0px" y="0px"
	 width="1024px" height="512px" viewBox="0 0 1024 512" enable-background="new 0 0 1024 512" xml:space="preserve">
<g id="Layer_553">
	<g>
		<circle fill="#FE9B9D" cx="512" cy="256" r="256"/>
		<g>
			<path fill="#FE9B9D" d="M438.944,413.963c0.298,2.187,3.21,2.709,4.522,1.066c1.877-2.357,26.069-31.274,34.293-60.149
				c2.325-8.192,13.344-50.518,13.344-50.518c6.614,12.192,25.899,22.891,46.411,22.891c61.056,0,102.475-53.855,102.475-125.962
				C639.989,146.773,592.256,96,519.733,96C429.515,96.011,384,158.613,384,210.816c0,31.605,12.374,59.733,38.88,70.229
				c4.373,1.707,8.267,0.064,9.515-4.607c0.886-3.232,2.955-11.35,3.894-14.773c1.248-4.607,0.778-6.208-2.73-10.229
				c-7.67-8.725-12.555-20.042-12.555-36.042c0-46.454,35.936-88.042,93.525-88.042c50.997,0,79.029,30.165,79.029,70.432
				c0,53.003-24.245,97.729-60.192,97.729c-19.894,0-34.773-15.894-30.016-35.393c5.728-23.296,16.789-48.416,16.789-65.227
				c0-15.04-8.352-27.584-25.621-27.584c-20.32,0-36.641,20.331-36.641,47.562c0,17.355,6.069,29.099,6.069,29.099
				s-20.8,85.206-24.437,100.149C432.267,373.856,438.421,410.293,438.944,413.963z"/>
		</g>
		<circle fill="#FE9B9D" cx="512" cy="256" r="256"/>
		<g>
			<path fill="#FE9B9D" d="M438.944,413.963c0.298,2.187,3.21,2.709,4.522,1.066c1.877-2.357,26.069-31.274,34.293-60.149
				c2.325-8.192,13.344-50.518,13.344-50.518c6.614,12.192,25.899,22.891,46.411,22.891c61.056,0,102.475-53.855,102.475-125.962
				C639.989,146.773,592.256,96,519.733,96C429.515,96.011,384,158.613,384,210.816c0,31.605,12.374,59.733,38.88,70.229
				c4.373,1.707,8.267,0.064,9.515-4.607c0.886-3.232,2.955-11.35,3.894-14.773c1.248-4.607,0.778-6.208-2.73-10.229
				c-7.67-8.725-12.555-20.042-12.555-36.042c0-46.454,35.936-88.042,93.525-88.042c50.997,0,79.029,30.165,79.029,70.432
				c0,53.003-24.245,97.729-60.192,97.729c-19.894,0-34.773-15.894-30.016-35.393c5.728-23.296,16.789-48.416,16.789-65.227
				c0-15.04-8.352-27.584-25.621-27.584c-20.32,0-36.641,20.331-36.641,47.562c0,17.355,6.069,29.099,6.069,29.099
				s-20.8,85.206-24.437,100.149C432.267,373.856,438.421,410.293,438.944,413.963z"/>
		</g>
		<circle fill="#FE9B9D" cx="512" cy="256" r="256"/>
		<g>
			<path fill="#FFFFFF" d="M438.944,413.963c0.298,2.187,3.21,2.709,4.522,1.066c1.877-2.357,26.069-31.274,34.293-60.149
				c2.325-8.192,13.344-50.518,13.344-50.518c6.614,12.192,25.899,22.891,46.411,22.891c61.056,0,102.475-53.855,102.475-125.962
				C639.989,146.773,592.256,96,519.733,96C429.515,96.011,384,158.613,384,210.816c0,31.605,12.374,59.733,38.88,70.229
				c4.373,1.707,8.267,0.064,9.515-4.607c0.886-3.232,2.955-11.35,3.894-14.773c1.248-4.607,0.778-6.208-2.73-10.229
				c-7.67-8.725-12.555-20.042-12.555-36.042c0-46.454,35.936-88.042,93.525-88.042c50.997,0,79.029,30.165,79.029,70.432
				c0,53.003-24.245,97.729-60.192,97.729c-19.894,0-34.773-15.894-30.016-35.393c5.728-23.296,16.789-48.416,16.789-65.227
				c0-15.04-8.352-27.584-25.621-27.584c-20.32,0-36.641,20.331-36.641,47.562c0,17.355,6.069,29.099,6.069,29.099
				s-20.8,85.206-24.437,100.149C432.267,373.856,438.421,410.293,438.944,413.963z"/>
		</g>
	</g>
</g>
<g id="Layer_1_1_">
</g>
</svg>
