<?xml version="1.0" encoding="utf-8"?>
<!-- Generator: Adobe Illustrator 15.0.0, SVG Export Plug-In . SVG Version: 6.00 Build 0)  -->
<!DOCTYPE svg PUBLIC "-//W3C//DTD SVG 1.1//EN" "http://www.w3.org/Graphics/SVG/1.1/DTD/svg11.dtd">
<svg version="1.1" id="Layer_1" xmlns="http://www.w3.org/2000/svg" xmlns:xlink="http://www.w3.org/1999/xlink" x="0px" y="0px"
	 width="1024px" height="512px" viewBox="0 0 1024 512" enable-background="new 0 0 1024 512" xml:space="preserve">
<g id="Layer_543">
	<g>
		<circle fill="#FE9B9D" cx="512" cy="256" r="256"/>
		<g>
			<path fill="#FE9B9D" d="M610.145,96h-196.31C379.733,96,352,123.733,352,157.834v65.333v130.997
				C352,388.267,379.733,416,413.834,416h196.31C644.245,416,672,388.267,672,354.165V223.168v-65.333
				C672,123.733,644.245,96,610.145,96z M627.894,132.896l7.062-0.042v7.061v47.168l-54.038,0.182l-0.191-54.229L627.894,132.896z
				 M466.336,223.168c10.251-14.187,26.869-23.478,45.664-23.478s35.413,9.291,45.664,23.478
				c6.667,9.248,10.667,20.587,10.667,32.832c0,31.04-25.291,56.31-56.331,56.31c-31.062,0-56.331-25.27-56.331-56.31
				C455.669,243.755,459.669,232.416,466.336,223.168z M640.832,354.165c0,16.918-13.771,30.667-30.688,30.667h-196.31
				c-16.917,0-30.667-13.749-30.667-30.667V223.168h47.766c-4.128,10.144-6.433,21.227-6.433,32.832
				c0,48.245,39.254,87.499,87.499,87.499s87.499-39.254,87.499-87.499c0-11.605-2.336-22.688-6.454-32.832h47.787V354.165z"/>
		</g>
		<circle fill="#FE9B9D" cx="512" cy="256" r="256"/>
		<g>
			<path fill="#FE9B9D" d="M610.145,96h-196.31C379.733,96,352,123.733,352,157.834v65.333v130.997
				C352,388.267,379.733,416,413.834,416h196.31C644.245,416,672,388.267,672,354.165V223.168v-65.333
				C672,123.733,644.245,96,610.145,96z M627.894,132.896l7.062-0.042v7.061v47.168l-54.038,0.182l-0.191-54.229L627.894,132.896z
				 M466.336,223.168c10.251-14.187,26.869-23.478,45.664-23.478s35.413,9.291,45.664,23.478
				c6.667,9.248,10.667,20.587,10.667,32.832c0,31.04-25.291,56.31-56.331,56.31c-31.062,0-56.331-25.27-56.331-56.31
				C455.669,243.755,459.669,232.416,466.336,223.168z M640.832,354.165c0,16.918-13.771,30.667-30.688,30.667h-196.31
				c-16.917,0-30.667-13.749-30.667-30.667V223.168h47.766c-4.128,10.144-6.433,21.227-6.433,32.832
				c0,48.245,39.254,87.499,87.499,87.499s87.499-39.254,87.499-87.499c0-11.605-2.336-22.688-6.454-32.832h47.787V354.165z"/>
		</g>
		<circle fill="#FE9B9D" cx="512" cy="256" r="256"/>
		<g>
			<path fill="#FFFFFF" d="M610.145,96h-196.31C379.733,96,352,123.733,352,157.834v65.333v130.997
				C352,388.267,379.733,416,413.834,416h196.31C644.245,416,672,388.267,672,354.165V223.168v-65.333
				C672,123.733,644.245,96,610.145,96z M627.894,132.896l7.062-0.042v7.061v47.168l-54.038,0.182l-0.191-54.229L627.894,132.896z
				 M466.336,223.168c10.251-14.187,26.869-23.478,45.664-23.478s35.413,9.291,45.664,23.478
				c6.667,9.248,10.667,20.587,10.667,32.832c0,31.04-25.291,56.31-56.331,56.31c-31.062,0-56.331-25.27-56.331-56.31
				C455.669,243.755,459.669,232.416,466.336,223.168z M640.832,354.165c0,16.918-13.771,30.667-30.688,30.667h-196.31
				c-16.917,0-30.667-13.749-30.667-30.667V223.168h47.766c-4.128,10.144-6.433,21.227-6.433,32.832
				c0,48.245,39.254,87.499,87.499,87.499s87.499-39.254,87.499-87.499c0-11.605-2.336-22.688-6.454-32.832h47.787V354.165z"/>
		</g>
	</g>
</g>
<g id="Layer_1_1_">
</g>
</svg>
