<?xml version="1.0" encoding="utf-8"?>
<!-- Generator: Adobe Illustrator 15.0.0, SVG Export Plug-In . SVG Version: 6.00 Build 0)  -->
<!DOCTYPE svg PUBLIC "-//W3C//DTD SVG 1.1//EN" "http://www.w3.org/Graphics/SVG/1.1/DTD/svg11.dtd">
<svg version="1.1" id="Layer_1" xmlns="http://www.w3.org/2000/svg" xmlns:xlink="http://www.w3.org/1999/xlink" x="0px" y="0px"
	 width="1024px" height="512px" viewBox="0 0 1024 512" enable-background="new 0 0 1024 512" xml:space="preserve">
<g id="Layer_509">
	<g>
		<circle fill="#FE9B9D" cx="512" cy="255.979" r="256"/>
		<polygon fill="#FE9B9D" points="672,224 544,224 544,96 480,96 480,224 352,224 352,288 480,288 480,416 544,416 544,288 672,288 
					"/>
		<circle fill="#FE9B9D" cx="512" cy="255.979" r="256"/>
		<polygon fill="#FE9B9D" points="672,224 544,224 544,96 480,96 480,224 352,224 352,288 480,288 480,416 544,416 544,288 672,288 
					"/>
		<circle fill="#FE9B9D" cx="512" cy="255.979" r="256"/>
		<polygon fill="#FFFFFF" points="672,224 544,224 544,96 480,96 480,224 352,224 352,288 480,288 480,416 544,416 544,288 672,288 
					"/>
	</g>
</g>
<g id="Layer_1_1_">
</g>
</svg>
