<?xml version="1.0" encoding="utf-8"?>
<!-- Generator: Adobe Illustrator 15.0.0, SVG Export Plug-In . SVG Version: 6.00 Build 0)  -->
<!DOCTYPE svg PUBLIC "-//W3C//DTD SVG 1.1//EN" "http://www.w3.org/Graphics/SVG/1.1/DTD/svg11.dtd">
<svg version="1.1" id="Layer_1" xmlns="http://www.w3.org/2000/svg" xmlns:xlink="http://www.w3.org/1999/xlink" x="0px" y="0px"
	 width="1024px" height="512px" viewBox="0 0 1024 512" enable-background="new 0 0 1024 512" xml:space="preserve">
<g id="Layer_574">
	<g>
		<circle fill="#FE9B9D" cx="512" cy="256" r="256.011"/>
		<g>
			<path fill="#FE9B9D" d="M663.179,132.715c-12.683,7.413-26.752,12.8-41.707,15.701C609.515,135.851,592.448,128,573.558,128
				c-36.245,0-65.643,28.938-65.643,64.629c0,5.066,0.586,9.984,1.685,14.72c-54.56-2.698-102.933-28.426-135.317-67.52
				c-5.643,9.536-8.896,20.64-8.896,32.491c0,22.411,11.616,42.198,29.216,53.782c-10.752-0.342-20.885-3.243-29.738-8.075
				c0,0.267,0,0.544,0,0.811c0,31.307,22.634,57.429,52.672,63.381c-5.515,1.472-11.307,2.262-17.312,2.262
				c-4.224,0-8.331-0.406-12.352-1.163c8.373,25.664,32.608,44.362,61.333,44.886c-22.475,17.333-50.773,27.669-81.546,27.669
				c-5.312,0-10.517-0.31-15.669-0.907C381.056,373.302,415.584,384,452.64,384c120.769,0,186.795-98.464,186.795-183.872
				c0-2.794-0.043-5.6-0.171-8.363c12.811-9.109,23.958-20.491,32.747-33.461c-11.766,5.152-24.416,8.608-37.707,10.176
				C647.872,160.48,658.262,147.819,663.179,132.715z"/>
		</g>
		<circle fill="#FE9B9D" cx="512" cy="256" r="256.011"/>
		<g>
			<path fill="#FE9B9D" d="M663.179,132.715c-12.683,7.413-26.752,12.8-41.707,15.701C609.515,135.851,592.448,128,573.558,128
				c-36.245,0-65.643,28.938-65.643,64.629c0,5.066,0.586,9.984,1.685,14.72c-54.56-2.698-102.933-28.426-135.317-67.52
				c-5.643,9.536-8.896,20.64-8.896,32.491c0,22.411,11.616,42.198,29.216,53.782c-10.752-0.342-20.885-3.243-29.738-8.075
				c0,0.267,0,0.544,0,0.811c0,31.307,22.634,57.429,52.672,63.381c-5.515,1.472-11.307,2.262-17.312,2.262
				c-4.224,0-8.331-0.406-12.352-1.163c8.373,25.664,32.608,44.362,61.333,44.886c-22.475,17.333-50.773,27.669-81.546,27.669
				c-5.312,0-10.517-0.31-15.669-0.907C381.056,373.302,415.584,384,452.64,384c120.769,0,186.795-98.464,186.795-183.872
				c0-2.794-0.043-5.6-0.171-8.363c12.811-9.109,23.958-20.491,32.747-33.461c-11.766,5.152-24.416,8.608-37.707,10.176
				C647.872,160.48,658.262,147.819,663.179,132.715z"/>
		</g>
		<circle fill="#FE9B9D" cx="512" cy="256" r="256.011"/>
		<g>
			<path fill="#FFFFFF" d="M663.179,132.715c-12.683,7.413-26.752,12.8-41.707,15.701C609.515,135.851,592.448,128,573.558,128
				c-36.245,0-65.643,28.938-65.643,64.629c0,5.066,0.586,9.984,1.685,14.72c-54.56-2.698-102.933-28.426-135.317-67.52
				c-5.643,9.536-8.896,20.64-8.896,32.491c0,22.411,11.616,42.198,29.216,53.782c-10.752-0.342-20.885-3.243-29.738-8.075
				c0,0.267,0,0.544,0,0.811c0,31.307,22.634,57.429,52.672,63.381c-5.515,1.472-11.307,2.262-17.312,2.262
				c-4.224,0-8.331-0.406-12.352-1.163c8.373,25.664,32.608,44.362,61.333,44.886c-22.475,17.333-50.773,27.669-81.546,27.669
				c-5.312,0-10.517-0.31-15.669-0.907C381.056,373.302,415.584,384,452.64,384c120.769,0,186.795-98.464,186.795-183.872
				c0-2.794-0.043-5.6-0.171-8.363c12.811-9.109,23.958-20.491,32.747-33.461c-11.766,5.152-24.416,8.608-37.707,10.176
				C647.872,160.48,658.262,147.819,663.179,132.715z"/>
		</g>
	</g>
</g>
<g id="Layer_1_1_">
</g>
</svg>
