<?xml version="1.0" encoding="utf-8"?>
<!-- Generator: Adobe Illustrator 15.0.0, SVG Export Plug-In . SVG Version: 6.00 Build 0)  -->
<!DOCTYPE svg PUBLIC "-//W3C//DTD SVG 1.1//EN" "http://www.w3.org/Graphics/SVG/1.1/DTD/svg11.dtd">
<svg version="1.1" xmlns="http://www.w3.org/2000/svg" xmlns:xlink="http://www.w3.org/1999/xlink" x="0px" y="0px"
	 width="376.481px" height="373.481px" viewBox="0 0 376.481 373.481" enable-background="new 0 0 376.481 373.481"
	 xml:space="preserve">
<g id="Layer_2">
	<circle fill="#FFFFFF" cx="186.074" cy="190.239" r="166.743"/>
</g>
<g id="Layer_1">
	<path fill="none" stroke="#F6999E" stroke-width="1.5374" stroke-miterlimit="10" d="M185.135,75.196c0,0,35.617-12.299,0-37.667
		c-2.562,2.307-17.937,11.019-16.143,22.037C170.785,70.584,185.135,75.196,185.135,75.196z"/>
	<path fill="none" stroke="#F6999E" stroke-width="1.5374" stroke-miterlimit="10" d="M165.492,77.375
		c0,0,32.938-18.297-6.542-37.095c-2.123,2.716-15.75,13.966-12.071,24.505C150.56,75.325,165.492,77.375,165.492,77.375z"/>
	<path fill="none" stroke="#F6999E" stroke-width="1.5374" stroke-miterlimit="10" d="M146.525,82.933
		c0,0,29.261-23.74-12.883-35.396c-1.62,3.043-13.086,16.489-7.634,26.229C131.464,83.505,146.525,82.933,146.525,82.933z"/>
	<path fill="none" stroke="#F6999E" stroke-width="1.5374" stroke-miterlimit="10" d="M128.812,91.698
		c0,0,24.694-28.459-18.833-32.621c-1.067,3.278-10.024,18.511-2.963,27.155C114.079,94.878,128.812,91.698,128.812,91.698z"/>
	<path fill="none" stroke="#F6999E" stroke-width="1.5374" stroke-miterlimit="10" d="M112.889,103.407
		c0,0,19.377-32.315-24.211-28.855c-0.481,3.415-6.657,19.97,1.798,27.258C98.933,109.096,112.889,103.407,112.889,103.407z"/>
	<path fill="none" stroke="#F6999E" stroke-width="1.5374" stroke-miterlimit="10" d="M99.241,117.703
		c0,0,13.472-35.189-28.854-24.213c0.119,3.446-3.089,20.822,6.504,26.531C86.485,125.729,99.241,117.703,99.241,117.703z"/>
	<path fill="none" stroke="#F6999E" stroke-width="1.5374" stroke-miterlimit="10" d="M88.284,134.152
		c0,0,7.157-36.994-32.62-18.835c0.716,3.374,0.573,21.042,11.013,24.999C77.116,144.271,88.284,134.152,88.284,134.152z"/>
	<path fill="none" stroke="#F6999E" stroke-width="1.5374" stroke-miterlimit="10" d="M80.35,152.253
		c0,0,0.624-37.675-35.396-12.885c1.291,3.198,4.219,20.624,15.187,22.708C71.108,164.158,80.35,152.253,80.35,152.253z"/>
	<path fill="none" stroke="#F6999E" stroke-width="1.5374" stroke-miterlimit="10" d="M75.679,171.458
		c0,0-5.928-37.211-37.096-6.543c1.828,2.926,7.736,19.578,18.898,19.726C68.645,184.785,75.679,171.458,75.679,171.458z"/>
	<path fill="none" stroke="#F6999E" stroke-width="1.5374" stroke-miterlimit="10" d="M74.413,191.181
		c0,0-12.299-35.617-37.668-0.002c2.309,2.564,11.019,17.937,22.037,16.146C69.802,205.528,74.413,191.181,74.413,191.181z"/>
	<path fill="none" stroke="#F6999E" stroke-width="1.5374" stroke-miterlimit="10" d="M76.593,210.825
		c0,0-18.297-32.94-37.096,6.538c2.719,2.125,13.965,15.751,24.505,12.073C74.541,225.754,76.593,210.825,76.593,210.825z"/>
	<path fill="none" stroke="#F6999E" stroke-width="1.5374" stroke-miterlimit="10" d="M82.149,229.792
		c0,0-23.738-29.264-35.396,12.88c3.047,1.62,16.488,13.086,26.229,7.634C82.722,244.851,82.149,229.792,82.149,229.792z"/>
	<path fill="none" stroke="#F6999E" stroke-width="1.5374" stroke-miterlimit="10" d="M90.916,247.506
		c0,0-28.459-24.698-32.623,18.829c3.282,1.067,18.511,10.026,27.157,2.965C94.095,262.236,90.916,247.506,90.916,247.506z"/>
	<path fill="none" stroke="#F6999E" stroke-width="1.5374" stroke-miterlimit="10" d="M102.624,263.427
		c0,0-32.315-19.38-28.855,24.212c3.417,0.479,19.97,6.657,27.259-1.798C108.313,277.383,102.624,263.427,102.624,263.427z"/>
	<path fill="none" stroke="#F6999E" stroke-width="1.5374" stroke-miterlimit="10" d="M116.921,277.073
		c0,0-35.191-13.473-24.214,28.854c3.448-0.122,20.822,3.091,26.531-6.504C124.946,289.83,116.921,277.073,116.921,277.073z"/>
	<path fill="none" stroke="#F6999E" stroke-width="1.5374" stroke-miterlimit="10" d="M133.368,288.032
		c0,0-36.994-7.158-18.834,32.619c3.374-0.719,21.043-0.573,24.999-11.011C143.487,299.198,133.368,288.032,133.368,288.032z"/>
	<path fill="none" stroke="#F6999E" stroke-width="1.5374" stroke-miterlimit="10" d="M151.471,295.967
		c0,0-37.676-0.626-12.884,35.395c3.197-1.293,20.623-4.22,22.707-15.186C163.374,305.209,151.471,295.967,151.471,295.967z"/>
	<path fill="none" stroke="#F6999E" stroke-width="1.5374" stroke-miterlimit="10" d="M170.676,300.639
		c0,0-37.213,5.925-6.543,37.092c2.926-1.827,19.578-7.736,19.726-18.895C184.002,307.672,170.676,300.639,170.676,300.639z"/>
	<path fill="none" stroke="#F6999E" stroke-width="1.5374" stroke-miterlimit="10" d="M190.398,301.903
		c0,0-35.617,12.298-0.001,37.664c2.562-2.309,17.938-11.018,16.145-22.034C204.744,306.516,190.398,301.903,190.398,301.903z"/>
	<path fill="none" stroke="#F6999E" stroke-width="1.5374" stroke-miterlimit="10" d="M210.042,299.724
		c0,0-32.94,18.296,6.538,37.092c2.125-2.717,15.753-13.965,12.074-24.502C224.971,301.774,210.042,299.724,210.042,299.724z"/>
	<path fill="none" stroke="#F6999E" stroke-width="1.5374" stroke-miterlimit="10" d="M229.009,294.165
		c0,0-29.264,23.739,12.881,35.396c1.62-3.047,13.088-16.49,7.635-26.229C244.067,293.596,229.009,294.165,229.009,294.165z"/>
	<path fill="none" stroke="#F6999E" stroke-width="1.5374" stroke-miterlimit="10" d="M246.724,285.4
		c0,0-24.697,28.46,18.829,32.619c1.067-3.281,10.026-18.51,2.965-27.154C261.453,282.223,246.724,285.4,246.724,285.4z"/>
	<path fill="none" stroke="#F6999E" stroke-width="1.5374" stroke-miterlimit="10" d="M262.645,273.69
		c0,0-19.379,32.315,24.21,28.854c0.48-3.416,6.66-19.97-1.797-27.256C276.6,268.004,262.645,273.69,262.645,273.69z"/>
	<path fill="none" stroke="#F6999E" stroke-width="1.5374" stroke-miterlimit="10" d="M276.292,259.395
		c0,0-13.474,35.189,28.852,24.213c-0.12-3.45,3.092-20.824-6.5-26.532C289.048,251.37,276.292,259.395,276.292,259.395z"/>
	<path fill="none" stroke="#F6999E" stroke-width="1.5374" stroke-miterlimit="10" d="M287.249,242.946
		c0,0-7.158,36.995,32.618,18.834c-0.717-3.375-0.572-21.044-11.009-25C298.419,232.829,287.249,242.946,287.249,242.946z"/>
	<path fill="none" stroke="#F6999E" stroke-width="1.5374" stroke-miterlimit="10" d="M295.185,224.845
		c0,0-0.625,37.675,35.393,12.882c-1.292-3.199-4.219-20.623-15.184-22.707C304.427,212.941,295.185,224.845,295.185,224.845z"/>
	<path fill="none" stroke="#F6999E" stroke-width="1.5374" stroke-miterlimit="10" d="M299.854,205.642c0,0,5.927,37.21,37.092,6.54
		c-1.827-2.926-7.734-19.578-18.894-19.726C306.889,192.313,299.854,205.642,299.854,205.642z"/>
	<path fill="none" stroke="#F6999E" stroke-width="1.5374" stroke-miterlimit="10" d="M301.119,185.917c0,0,12.299,35.617,37.665,0
		c-2.308-2.564-11.018-17.937-22.033-16.145C305.733,171.57,301.119,185.917,301.119,185.917z"/>
	<path fill="none" stroke="#F6999E" stroke-width="1.5374" stroke-miterlimit="10" d="M298.94,166.274
		c0,0,18.297,32.939,37.093-6.541c-2.719-2.125-13.965-15.752-24.502-12.074C300.993,151.344,298.94,166.274,298.94,166.274z"/>
	<path fill="none" stroke="#F6999E" stroke-width="1.5374" stroke-miterlimit="10" d="M293.383,147.308
		c0,0,23.739,29.261,35.396-12.881c-3.047-1.623-16.488-13.089-26.227-7.638C292.812,132.247,293.383,147.308,293.383,147.308z"/>
	<path fill="none" stroke="#F6999E" stroke-width="1.5374" stroke-miterlimit="10" d="M284.616,129.594
		c0,0,28.461,24.694,32.62-18.833c-3.281-1.068-18.509-10.026-27.153-2.967C281.439,114.861,284.616,129.594,284.616,129.594z"/>
	<path fill="none" stroke="#F6999E" stroke-width="1.5374" stroke-miterlimit="10" d="M272.908,113.672
		c0,0,32.315,19.377,28.854-24.211c-3.418-0.481-19.971-6.66-27.258,1.793C267.222,99.714,272.908,113.672,272.908,113.672z"/>
	<path fill="none" stroke="#F6999E" stroke-width="1.5374" stroke-miterlimit="10" d="M258.612,100.024
		c0,0,35.19,13.472,24.212-28.854c-3.451,0.12-20.823-3.091-26.531,6.498C250.588,87.267,258.612,100.024,258.612,100.024z"/>
	<path fill="none" stroke="#F6999E" stroke-width="1.5374" stroke-miterlimit="10" d="M242.165,89.067
		c0,0,36.994,7.156,18.833-32.619c-3.378,0.716-21.043,0.571-25,11.007C232.047,77.896,242.165,89.067,242.165,89.067z"/>
	<path fill="none" stroke="#F6999E" stroke-width="1.5374" stroke-miterlimit="10" d="M224.063,81.132
		c0,0,37.676,0.624,12.883-35.395c-3.201,1.292-20.625,4.218-22.71,15.181C212.159,71.889,224.063,81.132,224.063,81.132z"/>
	<path fill="none" stroke="#F6999E" stroke-width="1.5374" stroke-miterlimit="10" d="M204.859,76.461c0,0,37.211-5.928,6.54-37.094
		c-2.928,1.828-19.578,7.735-19.729,18.894C191.53,69.424,204.859,76.461,204.859,76.461z"/>
	<path fill="none" stroke="#F6999E" stroke-width="1.5374" stroke-miterlimit="10" d="M158.95,40.28c0,0,9.085-28.533,26.185-2.751"
		/>
	<path fill="none" stroke="#F6999E" stroke-width="1.5374" stroke-miterlimit="10" d="M133.643,47.537c0,0,3.99-29.678,25.308-7.256
		"/>
	<path fill="none" stroke="#F6999E" stroke-width="1.5374" stroke-miterlimit="10" d="M109.979,59.078
		c0,0-1.225-29.92,23.664-11.541"/>
	<path fill="none" stroke="#F6999E" stroke-width="1.5374" stroke-miterlimit="10" d="M88.678,74.552
		c0,0-6.401-29.253,21.301-15.474"/>
	<path fill="none" stroke="#F6999E" stroke-width="1.5374" stroke-miterlimit="10" d="M70.388,93.49c0,0-11.384-27.697,18.29-18.938
		"/>
	<path fill="none" stroke="#F6999E" stroke-width="1.5374" stroke-miterlimit="10" d="M55.664,115.316
		c0,0-16.02-25.299,14.724-21.826"/>
	<path fill="none" stroke="#F6999E" stroke-width="1.5374" stroke-miterlimit="10" d="M44.954,139.368
		c0,0-20.17-22.134,10.71-24.052"/>
	<path fill="none" stroke="#F6999E" stroke-width="1.5374" stroke-miterlimit="10" d="M38.583,164.914
		c0,0-23.706-18.295,6.371-25.546"/>
	<path fill="none" stroke="#F6999E" stroke-width="1.5374" stroke-miterlimit="10" d="M36.745,191.178
		c0,0-26.522-13.899,1.838-26.264"/>
	<path fill="none" stroke="#F6999E" stroke-width="1.5374" stroke-miterlimit="10" d="M39.497,217.362
		c0,0-28.533-9.082-2.752-26.184"/>
	<path fill="none" stroke="#F6999E" stroke-width="1.5374" stroke-miterlimit="10" d="M46.753,242.672c0,0-29.677-3.99-7.256-25.31"
		/>
	<path fill="none" stroke="#F6999E" stroke-width="1.5374" stroke-miterlimit="10" d="M58.293,266.335
		c0,0-29.918,1.227-11.54-23.663"/>
	<path fill="none" stroke="#F6999E" stroke-width="1.5374" stroke-miterlimit="10" d="M73.769,287.639
		c0,0-29.252,6.399-15.476-21.304"/>
	<path fill="none" stroke="#F6999E" stroke-width="1.5374" stroke-miterlimit="10" d="M92.707,305.928
		c0,0-27.695,11.382-18.938-18.289"/>
	<path fill="none" stroke="#F6999E" stroke-width="1.5374" stroke-miterlimit="10" d="M114.534,320.651
		c0,0-25.298,16.02-21.827-14.724"/>
	<path fill="none" stroke="#F6999E" stroke-width="1.5374" stroke-miterlimit="10" d="M138.587,331.361
		c0,0-22.133,20.169-24.053-10.71"/>
	<path fill="none" stroke="#F6999E" stroke-width="1.5374" stroke-miterlimit="10" d="M164.133,337.73
		c0,0-18.294,23.708-25.546-6.369"/>
	<path fill="none" stroke="#F6999E" stroke-width="1.5374" stroke-miterlimit="10" d="M190.397,339.567
		c0,0-13.899,26.523-26.265-1.837"/>
	<path fill="none" stroke="#F6999E" stroke-width="1.5374" stroke-miterlimit="10" d="M216.58,336.815
		c0,0-9.082,28.536-26.183,2.752"/>
	<path fill="none" stroke="#F6999E" stroke-width="1.5374" stroke-miterlimit="10" d="M241.89,329.562c0,0-3.989,29.678-25.31,7.254
		"/>
	<path fill="none" stroke="#F6999E" stroke-width="1.5374" stroke-miterlimit="10" d="M265.553,318.02
		c0,0,1.227,29.921-23.663,11.542"/>
	<path fill="none" stroke="#F6999E" stroke-width="1.5374" stroke-miterlimit="10" d="M286.854,302.545
		c0,0,6.401,29.252-21.302,15.475"/>
	<path fill="none" stroke="#F6999E" stroke-width="1.5374" stroke-miterlimit="10" d="M305.144,283.607
		c0,0,11.386,27.694-18.289,18.938"/>
	<path fill="none" stroke="#F6999E" stroke-width="1.5374" stroke-miterlimit="10" d="M319.867,261.78
		c0,0,16.021,25.296-14.724,21.827"/>
	<path fill="none" stroke="#F6999E" stroke-width="1.5374" stroke-miterlimit="10" d="M330.577,237.728
		c0,0,20.17,22.132-10.71,24.053"/>
	<path fill="none" stroke="#F6999E" stroke-width="1.5374" stroke-miterlimit="10" d="M336.946,212.182
		c0,0,23.707,18.292-6.369,25.546"/>
	<path fill="none" stroke="#F6999E" stroke-width="1.5374" stroke-miterlimit="10" d="M338.784,185.917
		c0,0,26.522,13.897-1.838,26.264"/>
	<path fill="none" stroke="#F6999E" stroke-width="1.5374" stroke-miterlimit="10" d="M336.033,159.733
		c0,0,28.532,9.081,2.751,26.184"/>
	<path fill="none" stroke="#F6999E" stroke-width="1.5374" stroke-miterlimit="10" d="M328.778,134.426
		c0,0,29.675,3.986,7.255,25.307"/>
	<path fill="none" stroke="#F6999E" stroke-width="1.5374" stroke-miterlimit="10" d="M317.236,110.762
		c0,0,29.917-1.228,11.542,23.665"/>
	<path fill="none" stroke="#F6999E" stroke-width="1.5374" stroke-miterlimit="10" d="M301.763,89.461
		c0,0,29.25-6.403,15.474,21.301"/>
	<path fill="none" stroke="#F6999E" stroke-width="1.5374" stroke-miterlimit="10" d="M282.824,71.171
		c0,0,27.693-11.385,18.938,18.29"/>
	<path fill="none" stroke="#F6999E" stroke-width="1.5374" stroke-miterlimit="10" d="M260.998,56.448
		c0,0,25.295-16.021,21.826,14.723"/>
	<path fill="none" stroke="#F6999E" stroke-width="1.5374" stroke-miterlimit="10" d="M236.946,45.738
		c0,0,22.129-20.17,24.052,10.71"/>
	<path fill="none" stroke="#F6999E" stroke-width="1.5374" stroke-miterlimit="10" d="M211.399,39.367
		c0,0,18.292-23.707,25.547,6.371"/>
	<path fill="none" stroke="#F6999E" stroke-width="1.5374" stroke-miterlimit="10" d="M185.135,37.53
		c0,0,13.897-26.522,26.265,1.837"/>
	<path fill="none" stroke="#F6999E" stroke-width="1.5374" stroke-miterlimit="10" d="M195.88,69.299l-10.745,6.392
		c0,0,9.863,13.421,19.725,1.265C201.255,74.192,195.88,69.299,195.88,69.299z"/>
	<path fill="none" stroke="#F6999E" stroke-width="1.5374" stroke-miterlimit="10" d="M195.88,69.299l-10.745,6.392
		c0,0,9.863,13.421,19.725,1.265C201.255,74.192,195.88,69.299,195.88,69.299z"/>
	<path fill="none" stroke="#F6999E" stroke-width="1.5374" stroke-miterlimit="10" d="M175.048,69.702l-9.472,8.16
		c0,0,12.045,11.504,19.646-2.179C181.192,73.587,175.048,69.702,175.048,69.702z"/>
	<path fill="none" stroke="#F6999E" stroke-width="1.5374" stroke-miterlimit="10" d="M154.604,73.716l-7.91,9.681
		c0,0,13.858,9.238,18.969-5.558C161.329,76.476,154.604,73.716,154.604,73.716z"/>
	<path fill="none" stroke="#F6999E" stroke-width="1.5374" stroke-miterlimit="10" d="M135.166,81.219l-6.108,10.907
		c0,0,15.252,6.691,17.716-8.767C142.271,82.769,135.166,81.219,135.166,81.219z"/>
	<path fill="none" stroke="#F6999E" stroke-width="1.5374" stroke-miterlimit="10" d="M117.328,91.984l-4.122,11.801
		c0,0,16.182,3.942,15.924-11.709C124.593,92.276,117.328,91.984,117.328,91.984z"/>
	<path fill="none" stroke="#F6999E" stroke-width="1.5374" stroke-miterlimit="10" d="M101.629,105.682L99.62,118.02
		c0,0,16.62,1.072,13.647-14.296C108.835,104.708,101.629,105.682,101.629,105.682z"/>
	<path fill="none" stroke="#F6999E" stroke-width="1.5374" stroke-miterlimit="10" d="M88.549,121.898l0.164,12.5
		c0,0,16.553-1.831,10.958-16.45C95.476,119.688,88.549,121.898,88.549,121.898z"/>
	<path fill="none" stroke="#F6999E" stroke-width="1.5374" stroke-miterlimit="10" d="M78.482,140.139l2.332,12.281
		c0,0,15.984-4.676,7.936-18.103C84.92,136.76,78.482,140.139,78.482,140.139z"/>
	<path fill="none" stroke="#F6999E" stroke-width="1.5374" stroke-miterlimit="10" d="M71.737,159.852l4.429,11.69
		c0,0,14.929-7.383,4.671-19.205C77.489,155.405,71.737,159.852,71.737,159.852z"/>
	<path fill="none" stroke="#F6999E" stroke-width="1.5374" stroke-miterlimit="10" d="M68.516,180.436l6.392,10.743
		c0,0,13.421-9.861,1.266-19.724C73.409,175.058,68.516,180.436,68.516,180.436z"/>
	<path fill="none" stroke="#F6999E" stroke-width="1.5374" stroke-miterlimit="10" d="M68.918,201.266l8.16,9.471
		c0,0,11.506-12.043-2.179-19.646C72.804,195.12,68.918,201.266,68.918,201.266z"/>
	<path fill="none" stroke="#F6999E" stroke-width="1.5374" stroke-miterlimit="10" d="M72.932,221.71l9.682,7.91
		c0,0,9.238-13.857-5.558-18.967C75.691,214.982,72.932,221.71,72.932,221.71z"/>
	<path fill="none" stroke="#F6999E" stroke-width="1.5374" stroke-miterlimit="10" d="M80.435,241.146l10.907,6.11
		c0,0,6.692-15.253-8.767-17.715C81.984,234.042,80.435,241.146,80.435,241.146z"/>
	<path fill="none" stroke="#F6999E" stroke-width="1.5374" stroke-miterlimit="10" d="M91.199,258.985l11.803,4.124
		c0,0,3.941-16.184-11.71-15.924C91.491,251.721,91.199,258.985,91.199,258.985z"/>
	<path fill="none" stroke="#F6999E" stroke-width="1.5374" stroke-miterlimit="10" d="M104.897,274.684l12.34,2.012
		c0,0,1.071-16.621-14.298-13.648C103.924,267.479,104.897,274.684,104.897,274.684z"/>
	<path fill="none" stroke="#F6999E" stroke-width="1.5374" stroke-miterlimit="10" d="M121.113,287.766l12.502-0.162
		c0,0-1.831-16.556-16.45-10.959C118.903,280.84,121.113,287.766,121.113,287.766z"/>
	<path fill="none" stroke="#F6999E" stroke-width="1.5374" stroke-miterlimit="10" d="M139.355,297.832l12.283-2.33
		c0,0-4.678-15.985-18.104-7.935C135.977,291.395,139.355,297.832,139.355,297.832z"/>
	<path fill="none" stroke="#F6999E" stroke-width="1.5374" stroke-miterlimit="10" d="M159.067,304.577l11.693-4.427
		c0,0-7.383-14.932-19.208-4.67C154.621,298.825,159.067,304.577,159.067,304.577z"/>
	<path fill="none" stroke="#F6999E" stroke-width="1.5374" stroke-miterlimit="10" d="M179.651,307.799l10.746-6.391
		c0,0-9.861-13.422-19.727-1.263C174.274,302.906,179.651,307.799,179.651,307.799z"/>
	<path fill="none" stroke="#F6999E" stroke-width="1.5374" stroke-miterlimit="10" d="M200.483,307.396l9.473-8.158
		c0,0-12.044-11.507-19.646,2.181C194.338,303.51,200.483,307.396,200.483,307.396z"/>
	<path fill="none" stroke="#F6999E" stroke-width="1.5374" stroke-miterlimit="10" d="M220.927,303.384l7.913-9.682
		c0,0-13.858-9.239-18.97,5.561C214.202,300.622,220.927,303.384,220.927,303.384z"/>
	<path fill="none" stroke="#F6999E" stroke-width="1.5374" stroke-miterlimit="10" d="M240.364,295.88l6.11-10.908
		c0,0-15.251-6.692-17.715,8.77C233.261,294.329,240.364,295.88,240.364,295.88z"/>
	<path fill="none" stroke="#F6999E" stroke-width="1.5374" stroke-miterlimit="10" d="M258.203,285.115l4.123-11.803
		c0,0-16.183-3.944-15.922,11.713C250.938,284.82,258.203,285.115,258.203,285.115z"/>
	<path fill="none" stroke="#F6999E" stroke-width="1.5374" stroke-miterlimit="10" d="M273.902,271.417l2.011-12.34
		c0,0-16.622-1.073-13.646,14.299C266.697,272.389,273.902,271.417,273.902,271.417z"/>
	<path fill="none" stroke="#F6999E" stroke-width="1.5374" stroke-miterlimit="10" d="M286.983,255.199l-0.163-12.5
		c0,0-16.555,1.831-10.956,16.452C280.057,257.408,286.983,255.199,286.983,255.199z"/>
	<path fill="none" stroke="#F6999E" stroke-width="1.5374" stroke-miterlimit="10" d="M297.05,236.959l-2.33-12.284
		c0,0-15.987,4.678-7.933,18.105C290.613,240.336,297.05,236.959,297.05,236.959z"/>
	<path fill="none" stroke="#F6999E" stroke-width="1.5374" stroke-miterlimit="10" d="M303.795,217.247l-4.427-11.693
		c0,0-14.931,7.383-4.669,19.208C298.042,221.69,303.795,217.247,303.795,217.247z"/>
	<path fill="none" stroke="#F6999E" stroke-width="1.5374" stroke-miterlimit="10" d="M307.017,196.663l-6.393-10.747
		c0,0-13.42,9.863-1.262,19.727C302.122,202.039,307.017,196.663,307.017,196.663z"/>
	<path fill="none" stroke="#F6999E" stroke-width="1.5374" stroke-miterlimit="10" d="M306.613,175.832l-8.16-9.474
		c0,0-11.505,12.042,2.183,19.646C302.729,181.976,306.613,175.832,306.613,175.832z"/>
	<path fill="none" stroke="#F6999E" stroke-width="1.5374" stroke-miterlimit="10" d="M302.601,155.388l-9.684-7.912
		c0,0-9.237,13.857,5.562,18.968C299.841,162.112,302.601,155.388,302.601,155.388z"/>
	<path fill="none" stroke="#F6999E" stroke-width="1.5374" stroke-miterlimit="10" d="M295.098,135.951l-10.91-6.111
		c0,0-6.69,15.25,8.771,17.714C293.547,143.052,295.098,135.951,295.098,135.951z"/>
	<path fill="none" stroke="#F6999E" stroke-width="1.5374" stroke-miterlimit="10" d="M284.334,118.112l-11.807-4.124
		c0,0-3.94,16.18,11.715,15.922C284.038,125.375,284.334,118.112,284.334,118.112z"/>
	<path fill="none" stroke="#F6999E" stroke-width="1.5374" stroke-miterlimit="10" d="M270.635,102.413l-12.343-2.01
		c0,0-1.07,16.619,14.302,13.646C271.605,109.617,270.635,102.413,270.635,102.413z"/>
	<path fill="none" stroke="#F6999E" stroke-width="1.5374" stroke-miterlimit="10" d="M254.419,89.332l-12.504,0.163
		c0,0,1.831,16.552,16.453,10.955C256.626,96.258,254.419,89.332,254.419,89.332z"/>
	<path fill="none" stroke="#F6999E" stroke-width="1.5374" stroke-miterlimit="10" d="M236.178,79.265l-12.287,2.333
		c0,0,4.679,15.981,18.107,7.931C239.554,85.703,236.178,79.265,236.178,79.265z"/>
	<path fill="none" stroke="#F6999E" stroke-width="1.5374" stroke-miterlimit="10" d="M216.465,72.518l-11.695,4.431
		c0,0,7.384,14.926,19.209,4.667C220.908,78.272,216.465,72.518,216.465,72.518z"/>
	<path fill="none" stroke="#F6999E" stroke-width="1.5374" stroke-miterlimit="10" d="M185.222,75.683"/>
	<path fill="none" stroke="#F6999E" stroke-width="1.5374" stroke-miterlimit="10" d="M185.137,75.758c0,0-2.342,3.925-5.159,6.069
		c0.928,0.389,6.098,4.417,12.192-0.553C189.758,79.99,187.814,78.867,185.137,75.758z"/>
	<path fill="none" stroke="#F6999E" stroke-width="1.5374" stroke-miterlimit="10" d="M165.591,77.928c0,0-1.625,4.272-4.026,6.873
		c0.98,0.223,6.771,3.292,11.911-2.662C170.878,81.293,168.768,80.525,165.591,77.928z"/>
	<path fill="none" stroke="#F6999E" stroke-width="1.5374" stroke-miterlimit="10" d="M146.718,83.459c0,0-0.857,4.49-2.77,7.468
		c1.003,0.049,7.238,2.066,11.267-4.69C152.51,85.855,150.299,85.465,146.718,83.459z"/>
	<path fill="none" stroke="#F6999E" stroke-width="1.5374" stroke-miterlimit="10" d="M129.093,92.184c0,0-0.064,4.57-1.432,7.835
		c0.997-0.125,7.488,0.779,10.282-6.575C135.212,93.538,132.968,93.537,129.093,92.184z"/>
	<path fill="none" stroke="#F6999E" stroke-width="1.5374" stroke-miterlimit="10" d="M113.25,103.836c0,0,0.73,4.513-0.049,7.964
		c0.96-0.296,7.509-0.533,8.984-8.26C119.513,104.107,117.301,104.496,113.25,103.836z"/>
	<path fill="none" stroke="#F6999E" stroke-width="1.5374" stroke-miterlimit="10" d="M99.672,118.062c0,0,1.502,4.318,1.335,7.853
		c0.894-0.459,7.302-1.83,7.414-9.696C105.887,117.242,103.775,118.008,99.672,118.062z"/>
	<path fill="none" stroke="#F6999E" stroke-width="1.5374" stroke-miterlimit="10" d="M88.77,134.43c0,0,2.229,3.992,2.68,7.501
		c0.801-0.607,6.872-3.069,5.617-10.834C94.748,132.543,92.802,133.665,88.77,134.43z"/>
	<path fill="none" stroke="#F6999E" stroke-width="1.5374" stroke-miterlimit="10" d="M80.876,152.443c0,0,2.89,3.543,3.94,6.922
		c0.685-0.737,6.236-4.216,3.652-11.645C86.437,149.546,84.715,150.989,80.876,152.443z"/>
	<path fill="none" stroke="#F6999E" stroke-width="1.5374" stroke-miterlimit="10" d="M76.231,171.553c0,0,3.46,2.988,5.081,6.132
		c0.547-0.844,5.41-5.234,1.575-12.102C81.204,167.735,79.758,169.454,76.231,171.553z"/>
	<path fill="none" stroke="#F6999E" stroke-width="1.5374" stroke-miterlimit="10" d="M74.974,191.178c0,0,3.927,2.343,6.07,5.157
		c0.391-0.927,4.419-6.094-0.551-12.191C79.207,186.557,78.084,188.5,74.974,191.178z"/>
	<path fill="none" stroke="#F6999E" stroke-width="1.5374" stroke-miterlimit="10" d="M77.144,210.725c0,0,4.274,1.625,6.874,4.024
		c0.224-0.98,3.294-6.769-2.66-11.911C80.511,205.437,79.741,207.545,77.144,210.725z"/>
	<path fill="none" stroke="#F6999E" stroke-width="1.5374" stroke-miterlimit="10" d="M82.675,229.597c0,0,4.492,0.858,7.468,2.77
		c0.052-1.004,2.069-7.238-4.687-11.268C85.073,223.805,84.681,226.015,82.675,229.597z"/>
	<path fill="none" stroke="#F6999E" stroke-width="1.5374" stroke-miterlimit="10" d="M91.398,247.223c0,0,4.573,0.063,7.837,1.431
		c-0.126-0.999,0.779-7.488-6.573-10.283C92.755,241.102,92.753,243.347,91.398,247.223z"/>
	<path fill="none" stroke="#F6999E" stroke-width="1.5374" stroke-miterlimit="10" d="M103.052,263.065c0,0,4.516-0.731,7.965,0.048
		c-0.296-0.961-0.532-7.509-8.258-8.984C103.324,256.802,103.712,259.013,103.052,263.065z"/>
	<path fill="none" stroke="#F6999E" stroke-width="1.5374" stroke-miterlimit="10" d="M117.279,276.644c0,0,4.318-1.504,7.852-1.336
		c-0.458-0.895-1.829-7.303-9.692-7.414C116.459,270.427,117.227,272.538,117.279,276.644z"/>
	<path fill="none" stroke="#F6999E" stroke-width="1.5374" stroke-miterlimit="10" d="M133.646,287.546c0,0,3.993-2.23,7.502-2.68
		c-0.606-0.802-3.069-6.873-10.833-5.619C131.76,281.565,132.883,283.511,133.646,287.546z"/>
	<path fill="none" stroke="#F6999E" stroke-width="1.5374" stroke-miterlimit="10" d="M151.659,295.439c0,0,3.546-2.893,6.923-3.943
		c-0.736-0.682-4.216-6.233-11.645-3.65C148.764,289.879,150.206,291.598,151.659,295.439z"/>
	<path fill="none" stroke="#F6999E" stroke-width="1.5374" stroke-miterlimit="10" d="M170.77,300.085c0,0,2.99-3.463,6.133-5.083
		c-0.844-0.547-5.234-5.411-12.102-1.574C166.951,295.11,168.672,296.555,170.77,300.085z"/>
	<path fill="none" stroke="#F6999E" stroke-width="1.5374" stroke-miterlimit="10" d="M190.396,301.342c0,0,2.343-3.93,5.156-6.073
		c-0.926-0.389-6.094-4.415-12.189,0.554C185.771,297.105,187.717,298.23,190.396,301.342z"/>
	<path fill="none" stroke="#F6999E" stroke-width="1.5374" stroke-miterlimit="10" d="M209.942,299.173c0,0,1.624-4.279,4.024-6.877
		c-0.98-0.221-6.77-3.291-11.911,2.659C204.653,295.804,206.764,296.571,209.942,299.173z"/>
	<path fill="none" stroke="#F6999E" stroke-width="1.5374" stroke-miterlimit="10" d="M228.814,293.642c0,0,0.858-4.496,2.769-7.471
		c-1.002-0.049-7.237-2.065-11.267,4.688C223.021,291.24,225.233,291.632,228.814,293.642z"/>
	<path fill="none" stroke="#F6999E" stroke-width="1.5374" stroke-miterlimit="10" d="M246.439,284.917c0,0,0.064-4.577,1.431-7.839
		c-0.997,0.126-7.485-0.776-10.282,6.573C240.317,283.56,242.563,283.56,246.439,284.917z"/>
	<path fill="none" stroke="#F6999E" stroke-width="1.5374" stroke-miterlimit="10" d="M262.282,273.265c0,0-0.73-4.521,0.048-7.968
		c-0.96,0.297-7.507,0.535-8.984,8.259C256.019,272.991,258.229,272.602,262.282,273.265z"/>
	<path fill="none" stroke="#F6999E" stroke-width="1.5374" stroke-miterlimit="10" d="M286.763,242.668c0,0-2.231-3.997-2.68-7.502
		c-0.801,0.606-6.872,3.07-5.619,10.834C280.784,244.554,282.729,243.433,286.763,242.668z"/>
	<path fill="none" stroke="#F6999E" stroke-width="1.5374" stroke-miterlimit="10" d="M294.657,224.655c0,0-2.894-3.549-3.941-6.922
		c-0.684,0.736-6.236,4.216-3.654,11.645C289.097,227.55,290.817,226.109,294.657,224.655z"/>
	<path fill="none" stroke="#F6999E" stroke-width="1.5374" stroke-miterlimit="10" d="M299.304,205.546c0,0-3.465-2.993-5.085-6.134
		c-0.544,0.844-5.409,5.235-1.575,12.103C294.329,209.361,295.772,207.644,299.304,205.546z"/>
	<path fill="none" stroke="#F6999E" stroke-width="1.5374" stroke-miterlimit="10" d="M300.561,185.92c0,0-3.932-2.347-6.072-5.159
		c-0.39,0.926-4.418,6.095,0.551,12.193C296.323,190.54,297.447,188.598,300.561,185.92z"/>
	<path fill="none" stroke="#F6999E" stroke-width="1.5374" stroke-miterlimit="10" d="M298.391,166.373c0,0-4.279-1.626-6.877-4.024
		c-0.222,0.979-3.292,6.768,2.66,11.911C295.021,171.659,295.79,169.55,298.391,166.373z"/>
	<path fill="none" stroke="#F6999E" stroke-width="1.5374" stroke-miterlimit="10" d="M292.86,147.5c0,0-4.498-0.859-7.472-2.771
		c-0.049,1.003-2.067,7.239,4.688,11.27C290.458,153.292,290.849,151.082,292.86,147.5z"/>
	<path fill="none" stroke="#F6999E" stroke-width="1.5374" stroke-miterlimit="10" d="M284.135,129.874c0,0-4.578-0.064-7.839-1.431
		c0.127,0.997-0.778,7.486,6.573,10.286C282.776,135.993,282.777,133.749,284.135,129.874z"/>
	<path fill="none" stroke="#F6999E" stroke-width="1.5374" stroke-miterlimit="10" d="M272.481,114.031c0,0-4.521,0.731-7.967-0.047
		c0.297,0.959,0.532,7.508,8.259,8.987C272.206,120.294,271.817,118.083,272.481,114.031z"/>
	<path fill="none" stroke="#F6999E" stroke-width="1.5374" stroke-miterlimit="10" d="M258.255,100.452c0,0-4.324,1.505-7.854,1.336
		c0.46,0.894,1.827,7.303,9.694,7.417C259.071,106.668,258.305,104.558,258.255,100.452z"/>
	<path fill="none" stroke="#F6999E" stroke-width="1.5374" stroke-miterlimit="10" d="M241.886,89.55c0,0-3.997,2.233-7.502,2.68
		c0.605,0.8,3.067,6.874,10.833,5.621C243.77,95.53,242.648,93.585,241.886,89.55z"/>
	<path fill="none" stroke="#F6999E" stroke-width="1.5374" stroke-miterlimit="10" d="M223.872,81.656c0,0-3.548,2.895-6.923,3.943
		c0.736,0.682,4.214,6.237,11.646,3.654C226.767,87.219,225.325,85.498,223.872,81.656z"/>
	<path fill="none" stroke="#F6999E" stroke-width="1.5374" stroke-miterlimit="10" d="M204.762,77.01c0,0-2.99,3.467-6.134,5.085
		c0.845,0.543,5.233,5.41,12.104,1.576C208.578,81.985,206.859,80.542,204.762,77.01z"/>
	<rect x="112.827" y="148.967" fill="none" width="146.494" height="82.545"/>
	<text transform="matrix(1 0 0 1 122.6587 178.3262)"><tspan x="0" y="0" fill="#8ED8F8" font-family="'GillSans-Light'" font-size="43.0478">ZABBY</tspan><tspan x="1.713" y="51.657" fill="#8ED8F8" font-family="'GillSans-Light'" font-size="43.0478">ALLEN</tspan></text>
</g>
</svg>
