<?xml version="1.0" encoding="utf-8"?>
<!-- Generator: Adobe Illustrator 15.0.0, SVG Export Plug-In . SVG Version: 6.00 Build 0)  -->
<!DOCTYPE svg PUBLIC "-//W3C//DTD SVG 1.1//EN" "http://www.w3.org/Graphics/SVG/1.1/DTD/svg11.dtd">
<svg version="1.1" xmlns="http://www.w3.org/2000/svg" xmlns:xlink="http://www.w3.org/1999/xlink" x="0px" y="0px" width="339px"
	 height="338px" viewBox="0 0 339 338" enable-background="new 0 0 339 338" xml:space="preserve">
<g id="Layer_3">
</g>
<g id="Layer_2">
	<path fill="none" stroke="#F6999E" stroke-width="1.5" stroke-miterlimit="10" d="M169.434,56.905c0,0,34.75-12,0-36.75
		c-2.5,2.25-17.5,10.75-15.75,21.5S169.434,56.905,169.434,56.905z"/>
	<path fill="none" stroke="#F6999E" stroke-width="1.5" stroke-miterlimit="10" d="M150.269,59.031c0,0,32.138-17.852-6.382-36.192
		c-2.071,2.65-15.367,13.626-11.777,23.908C135.7,57.031,150.269,59.031,150.269,59.031z"/>
	<path fill="none" stroke="#F6999E" stroke-width="1.5" stroke-miterlimit="10" d="M131.764,64.453c0,0,28.549-23.162-12.569-34.534
		c-1.58,2.969-12.768,16.087-7.447,25.59C117.069,65.012,131.764,64.453,131.764,64.453z"/>
	<path fill="none" stroke="#F6999E" stroke-width="1.5" stroke-miterlimit="10" d="M114.481,73.006c0,0,24.093-27.767-18.375-31.827
		c-1.041,3.198-9.78,18.06-2.891,26.495C100.107,76.107,114.481,73.006,114.481,73.006z"/>
	<path fill="none" stroke="#F6999E" stroke-width="1.5" stroke-miterlimit="10" d="M98.946,84.43c0,0,18.905-31.529-23.622-28.153
		c-0.47,3.331-6.495,19.483,1.754,26.594C85.33,89.98,98.946,84.43,98.946,84.43z"/>
	<path fill="none" stroke="#F6999E" stroke-width="1.5" stroke-miterlimit="10" d="M85.631,98.377c0,0,13.144-34.332-28.151-23.623
		c0.116,3.362-3.014,20.315,6.346,25.885C73.186,106.208,85.631,98.377,85.631,98.377z"/>
	<path fill="none" stroke="#F6999E" stroke-width="1.5" stroke-miterlimit="10" d="M74.94,114.426c0,0,6.982-36.094-31.826-18.377
		c0.698,3.291,0.56,20.53,10.744,24.391C64.044,124.299,74.94,114.426,74.94,114.426z"/>
	<path fill="none" stroke="#F6999E" stroke-width="1.5" stroke-miterlimit="10" d="M67.199,132.086c0,0,0.608-36.758-34.534-12.57
		c1.26,3.12,4.116,20.121,14.816,22.154C58.183,143.701,67.199,132.086,67.199,132.086z"/>
	<path fill="none" stroke="#F6999E" stroke-width="1.5" stroke-miterlimit="10" d="M62.642,150.823c0,0-5.783-36.306-36.192-6.384
		c1.783,2.854,7.548,19.101,18.438,19.245C55.779,163.826,62.642,150.823,62.642,150.823z"/>
	<path fill="none" stroke="#F6999E" stroke-width="1.5" stroke-miterlimit="10" d="M61.407,170.066c0,0-12-34.75-36.751-0.002
		c2.252,2.502,10.75,17.5,21.5,15.752C56.907,184.064,61.407,170.066,61.407,170.066z"/>
	<path fill="none" stroke="#F6999E" stroke-width="1.5" stroke-miterlimit="10" d="M63.533,189.232c0,0-17.852-32.139-36.192,6.379
		c2.652,2.072,13.625,15.367,23.908,11.779C61.532,203.799,63.533,189.232,63.533,189.232z"/>
	<path fill="none" stroke="#F6999E" stroke-width="1.5" stroke-miterlimit="10" d="M68.955,207.738c0,0-23.161-28.552-34.535,12.566
		c2.973,1.58,16.087,12.768,25.591,7.448C69.514,222.43,68.955,207.738,68.955,207.738z"/>
	<path fill="none" stroke="#F6999E" stroke-width="1.5" stroke-miterlimit="10" d="M77.508,225.021c0,0-27.767-24.097-31.828,18.372
		c3.202,1.041,18.06,9.781,26.496,2.892C80.609,239.393,77.508,225.021,77.508,225.021z"/>
	<path fill="none" stroke="#F6999E" stroke-width="1.5" stroke-miterlimit="10" d="M88.932,240.555c0,0-31.529-18.908-28.153,23.621
		c3.334,0.469,19.483,6.496,26.595-1.754C94.482,254.17,88.932,240.555,88.932,240.555z"/>
	<path fill="none" stroke="#F6999E" stroke-width="1.5" stroke-miterlimit="10" d="M102.88,253.869c0,0-34.334-13.146-23.624,28.151
		c3.364-0.118,20.315,3.015,25.886-6.345C110.71,266.314,102.88,253.869,102.88,253.869z"/>
	<path fill="none" stroke="#F6999E" stroke-width="1.5" stroke-miterlimit="10" d="M118.928,264.561c0,0-36.095-6.984-18.376,31.825
		c3.292-0.7,20.53-0.56,24.391-10.743C128.8,275.456,118.928,264.561,118.928,264.561z"/>
	<path fill="none" stroke="#F6999E" stroke-width="1.5" stroke-miterlimit="10" d="M136.589,272.303c0,0-36.759-0.611-12.57,34.531
		c3.12-1.26,20.121-4.115,22.154-14.814C148.202,281.318,136.589,272.303,136.589,272.303z"/>
	<path fill="none" stroke="#F6999E" stroke-width="1.5" stroke-miterlimit="10" d="M155.326,276.859c0,0-36.307,5.781-6.384,36.189
		c2.854-1.783,19.102-7.547,19.246-18.436C168.328,283.723,155.326,276.859,155.326,276.859z"/>
	<path fill="none" stroke="#F6999E" stroke-width="1.5" stroke-miterlimit="10" d="M174.569,278.094c0,0-34.75,11.998-0.002,36.748
		c2.501-2.252,17.501-10.749,15.752-21.498C188.565,282.595,174.569,278.094,174.569,278.094z"/>
	<path fill="none" stroke="#F6999E" stroke-width="1.5" stroke-miterlimit="10" d="M193.735,275.967c0,0-32.14,17.852,6.379,36.19
		c2.072-2.651,15.369-13.625,11.779-23.907C208.3,277.97,193.735,275.967,193.735,275.967z"/>
	<path fill="none" stroke="#F6999E" stroke-width="1.5" stroke-miterlimit="10" d="M212.24,270.545c0,0-28.552,23.161,12.566,34.533
		c1.581-2.972,12.77-16.088,7.449-25.59C226.932,269.988,212.24,270.545,212.24,270.545z"/>
	<path fill="none" stroke="#F6999E" stroke-width="1.5" stroke-miterlimit="10" d="M229.522,261.992
		c0,0-24.096,27.768,18.372,31.826c1.041-3.201,9.782-18.061,2.893-26.494C243.895,258.893,229.522,261.992,229.522,261.992z"/>
	<path fill="none" stroke="#F6999E" stroke-width="1.5" stroke-miterlimit="10" d="M245.057,250.568c0,0-18.907,31.529,23.62,28.152
		c0.469-3.334,6.498-19.484-1.752-26.594C258.673,245.02,245.057,250.568,245.057,250.568z"/>
	<path fill="none" stroke="#F6999E" stroke-width="1.5" stroke-miterlimit="10" d="M258.372,236.62c0,0-13.146,34.333,28.149,23.623
		c-0.117-3.364,3.016-20.316-6.343-25.886C270.817,228.791,258.372,236.62,258.372,236.62z"/>
	<path fill="none" stroke="#F6999E" stroke-width="1.5" stroke-miterlimit="10" d="M269.062,220.572c0,0-6.983,36.094,31.824,18.375
		c-0.699-3.293-0.559-20.531-10.741-24.391C279.96,210.701,269.062,220.572,269.062,220.572z"/>
	<path fill="none" stroke="#F6999E" stroke-width="1.5" stroke-miterlimit="10" d="M276.804,202.912c0,0-0.609,36.758,34.532,12.568
		c-1.261-3.121-4.116-20.121-14.813-22.154C285.821,191.298,276.804,202.912,276.804,202.912z"/>
	<path fill="none" stroke="#F6999E" stroke-width="1.5" stroke-miterlimit="10" d="M281.36,184.176c0,0,5.783,36.305,36.19,6.381
		c-1.783-2.855-7.547-19.102-18.435-19.246C288.225,171.172,281.36,184.176,281.36,184.176z"/>
	<path fill="none" stroke="#F6999E" stroke-width="1.5" stroke-miterlimit="10" d="M282.595,164.932c0,0,12,34.75,36.749,0
		c-2.252-2.502-10.75-17.5-21.497-15.752C287.097,150.934,282.595,164.932,282.595,164.932z"/>
	<path fill="none" stroke="#F6999E" stroke-width="1.5" stroke-miterlimit="10" d="M280.469,145.767c0,0,17.853,32.138,36.19-6.382
		c-2.652-2.073-13.625-15.368-23.905-11.78C282.472,131.199,280.469,145.767,280.469,145.767z"/>
	<path fill="none" stroke="#F6999E" stroke-width="1.5" stroke-miterlimit="10" d="M275.047,127.262
		c0,0,23.162,28.549,34.533-12.568c-2.973-1.582-16.087-12.77-25.588-7.451C274.49,112.567,275.047,127.262,275.047,127.262z"/>
	<path fill="none" stroke="#F6999E" stroke-width="1.5" stroke-miterlimit="10" d="M266.494,109.979
		c0,0,27.768,24.094,31.826-18.373c-3.202-1.043-18.06-9.783-26.493-2.896C263.395,95.605,266.494,109.979,266.494,109.979z"/>
	<path fill="none" stroke="#F6999E" stroke-width="1.5" stroke-miterlimit="10" d="M255.07,94.444c0,0,31.529,18.905,28.152-23.622
		c-3.335-0.469-19.484-6.497-26.594,1.75C249.522,80.826,255.07,94.444,255.07,94.444z"/>
	<path fill="none" stroke="#F6999E" stroke-width="1.5" stroke-miterlimit="10" d="M241.123,81.129c0,0,34.333,13.145,23.622-28.151
		c-3.366,0.117-20.316-3.016-25.886,6.34C233.294,68.682,241.123,81.129,241.123,81.129z"/>
	<path fill="none" stroke="#F6999E" stroke-width="1.5" stroke-miterlimit="10" d="M225.075,70.438c0,0,36.094,6.981,18.375-31.826
		c-3.295,0.699-20.531,0.558-24.392,10.739C215.203,59.54,225.075,70.438,225.075,70.438z"/>
	<path fill="none" stroke="#F6999E" stroke-width="1.5" stroke-miterlimit="10" d="M207.415,62.697c0,0,36.758,0.608,12.568-34.533
		c-3.123,1.261-20.122,4.115-22.156,14.812C195.8,53.678,207.415,62.697,207.415,62.697z"/>
	<path fill="none" stroke="#F6999E" stroke-width="1.5" stroke-miterlimit="10" d="M188.679,58.139c0,0,36.305-5.784,6.38-36.191
		c-2.856,1.784-19.102,7.547-19.247,18.434C175.674,51.274,188.679,58.139,188.679,58.139z"/>
	<path fill="none" stroke="#F6999E" stroke-width="1.5" stroke-miterlimit="10" d="M143.887,22.839c0,0,8.863-27.839,25.547-2.684"
		/>
	<path fill="none" stroke="#F6999E" stroke-width="1.5" stroke-miterlimit="10" d="M119.194,29.919c0,0,3.894-28.956,24.692-7.08"/>
	<path fill="none" stroke="#F6999E" stroke-width="1.5" stroke-miterlimit="10" d="M96.106,41.179c0,0-1.194-29.192,23.088-11.26"/>
	<path fill="none" stroke="#F6999E" stroke-width="1.5" stroke-miterlimit="10" d="M75.324,56.277c0,0-6.245-28.542,20.782-15.098"
		/>
	<path fill="none" stroke="#F6999E" stroke-width="1.5" stroke-miterlimit="10" d="M57.479,74.754c0,0-11.106-27.023,17.845-18.477"
		/>
	<path fill="none" stroke="#F6999E" stroke-width="1.5" stroke-miterlimit="10" d="M43.114,96.049c0,0-15.63-24.684,14.365-21.295"
		/>
	<path fill="none" stroke="#F6999E" stroke-width="1.5" stroke-miterlimit="10" d="M32.665,119.516c0,0-19.679-21.596,10.449-23.467
		"/>
	<path fill="none" stroke="#F6999E" stroke-width="1.5" stroke-miterlimit="10" d="M26.449,144.439c0,0-23.129-17.85,6.216-24.924"
		/>
	<path fill="none" stroke="#F6999E" stroke-width="1.5" stroke-miterlimit="10" d="M24.656,170.064c0,0-25.877-13.562,1.793-25.625"
		/>
	<path fill="none" stroke="#F6999E" stroke-width="1.5" stroke-miterlimit="10" d="M27.341,195.611c0,0-27.839-8.861-2.685-25.547"
		/>
	<path fill="none" stroke="#F6999E" stroke-width="1.5" stroke-miterlimit="10" d="M34.42,220.305c0,0-28.954-3.893-7.079-24.693"/>
	<path fill="none" stroke="#F6999E" stroke-width="1.5" stroke-miterlimit="10" d="M45.68,243.393c0,0-29.19,1.195-11.26-23.088"/>
	<path fill="none" stroke="#F6999E" stroke-width="1.5" stroke-miterlimit="10" d="M60.778,264.176c0,0-28.54,6.245-15.099-20.783"
		/>
	<path fill="none" stroke="#F6999E" stroke-width="1.5" stroke-miterlimit="10" d="M79.256,282.021c0,0-27.021,11.106-18.478-17.845
		"/>
	<path fill="none" stroke="#F6999E" stroke-width="1.5" stroke-miterlimit="10" d="M100.552,296.386c0,0-24.683,15.63-21.296-14.365
		"/>
	<path fill="none" stroke="#F6999E" stroke-width="1.5" stroke-miterlimit="10" d="M124.019,306.834c0,0-21.594,19.68-23.467-10.448
		"/>
	<path fill="none" stroke="#F6999E" stroke-width="1.5" stroke-miterlimit="10" d="M148.942,313.049c0,0-17.848,23.131-24.924-6.215
		"/>
	<path fill="none" stroke="#F6999E" stroke-width="1.5" stroke-miterlimit="10" d="M174.567,314.842c0,0-13.561,25.879-25.625-1.793
		"/>
	<path fill="none" stroke="#F6999E" stroke-width="1.5" stroke-miterlimit="10" d="M200.114,312.157c0,0-8.861,27.841-25.547,2.685"
		/>
	<path fill="none" stroke="#F6999E" stroke-width="1.5" stroke-miterlimit="10" d="M224.807,305.078c0,0-3.892,28.956-24.692,7.079"
		/>
	<path fill="none" stroke="#F6999E" stroke-width="1.5" stroke-miterlimit="10" d="M247.895,293.818c0,0,1.196,29.191-23.088,11.26"
		/>
	<path fill="none" stroke="#F6999E" stroke-width="1.5" stroke-miterlimit="10" d="M268.677,278.721c0,0,6.247,28.539-20.782,15.098
		"/>
	<path fill="none" stroke="#F6999E" stroke-width="1.5" stroke-miterlimit="10" d="M286.521,260.243
		c0,0,11.108,27.021-17.845,18.478"/>
	<path fill="none" stroke="#F6999E" stroke-width="1.5" stroke-miterlimit="10" d="M300.887,238.947
		c0,0,15.632,24.682-14.365,21.296"/>
	<path fill="none" stroke="#F6999E" stroke-width="1.5" stroke-miterlimit="10" d="M311.336,215.48c0,0,19.68,21.593-10.449,23.467"
		/>
	<path fill="none" stroke="#F6999E" stroke-width="1.5" stroke-miterlimit="10" d="M317.551,190.557c0,0,23.13,17.847-6.215,24.924"
		/>
	<path fill="none" stroke="#F6999E" stroke-width="1.5" stroke-miterlimit="10" d="M319.344,164.932c0,0,25.877,13.559-1.793,25.625
		"/>
	<path fill="none" stroke="#F6999E" stroke-width="1.5" stroke-miterlimit="10" d="M316.659,139.385c0,0,27.838,8.859,2.685,25.547"
		/>
	<path fill="none" stroke="#F6999E" stroke-width="1.5" stroke-miterlimit="10" d="M309.58,114.693c0,0,28.953,3.889,7.079,24.691"
		/>
	<path fill="none" stroke="#F6999E" stroke-width="1.5" stroke-miterlimit="10" d="M298.32,91.605c0,0,29.188-1.197,11.26,23.088"/>
	<path fill="none" stroke="#F6999E" stroke-width="1.5" stroke-miterlimit="10" d="M283.223,70.822c0,0,28.537-6.246,15.098,20.783"
		/>
	<path fill="none" stroke="#F6999E" stroke-width="1.5" stroke-miterlimit="10" d="M264.745,52.978c0,0,27.02-11.108,18.478,17.844"
		/>
	<path fill="none" stroke="#F6999E" stroke-width="1.5" stroke-miterlimit="10" d="M243.45,38.613c0,0,24.68-15.631,21.295,14.365"
		/>
	<path fill="none" stroke="#F6999E" stroke-width="1.5" stroke-miterlimit="10" d="M219.983,28.164c0,0,21.591-19.679,23.467,10.449
		"/>
	<path fill="none" stroke="#F6999E" stroke-width="1.5" stroke-miterlimit="10" d="M195.059,21.948c0,0,17.847-23.129,24.925,6.215"
		/>
	<path fill="none" stroke="#F6999E" stroke-width="1.5" stroke-miterlimit="10" d="M169.434,20.156c0,0,13.56-25.877,25.625,1.792"
		/>
	<path fill="none" stroke="#F6999E" stroke-width="1.5" stroke-miterlimit="10" d="M179.917,51.151l-10.483,6.236
		c0,0,9.623,13.095,19.245,1.234C185.161,55.926,179.917,51.151,179.917,51.151z"/>
	<path fill="none" stroke="#F6999E" stroke-width="1.5" stroke-miterlimit="10" d="M179.917,51.151l-10.483,6.236
		c0,0,9.623,13.095,19.245,1.234C185.161,55.926,179.917,51.151,179.917,51.151z"/>
	<path fill="none" stroke="#F6999E" stroke-width="1.5" stroke-miterlimit="10" d="M159.593,51.544l-9.241,7.961
		c0,0,11.751,11.225,19.167-2.126C165.587,55.335,159.593,51.544,159.593,51.544z"/>
	<path fill="none" stroke="#F6999E" stroke-width="1.5" stroke-miterlimit="10" d="M139.646,55.461l-7.718,9.445
		c0,0,13.521,9.014,18.507-5.423C146.208,58.153,139.646,55.461,139.646,55.461z"/>
	<path fill="none" stroke="#F6999E" stroke-width="1.5" stroke-miterlimit="10" d="M120.682,62.782l-5.96,10.641
		c0,0,14.881,6.528,17.284-8.554C127.612,64.293,120.682,62.782,120.682,62.782z"/>
	<path fill="none" stroke="#F6999E" stroke-width="1.5" stroke-miterlimit="10" d="M103.277,73.284l-4.021,11.515
		c0,0,15.788,3.846,15.536-11.426C110.365,73.569,103.277,73.284,103.277,73.284z"/>
	<path fill="none" stroke="#F6999E" stroke-width="1.5" stroke-miterlimit="10" d="M87.961,86.648l-1.96,12.038
		c0,0,16.215,1.046,13.315-13.948C94.991,85.699,87.961,86.648,87.961,86.648z"/>
	<path fill="none" stroke="#F6999E" stroke-width="1.5" stroke-miterlimit="10" d="M75.198,102.471l0.16,12.195
		c0,0,16.15-1.786,10.691-16.049C81.957,100.314,75.198,102.471,75.198,102.471z"/>
	<path fill="none" stroke="#F6999E" stroke-width="1.5" stroke-miterlimit="10" d="M65.377,120.268l2.275,11.982
		c0,0,15.595-4.562,7.742-17.662C71.658,116.971,65.377,120.268,65.377,120.268z"/>
	<path fill="none" stroke="#F6999E" stroke-width="1.5" stroke-miterlimit="10" d="M58.796,139.5l4.321,11.406
		c0,0,14.565-7.203,4.558-18.738C64.408,135.162,58.796,139.5,58.796,139.5z"/>
	<path fill="none" stroke="#F6999E" stroke-width="1.5" stroke-miterlimit="10" d="M55.653,159.583l6.236,10.481
		c0,0,13.094-9.621,1.234-19.244C60.428,154.336,55.653,159.583,55.653,159.583z"/>
	<path fill="none" stroke="#F6999E" stroke-width="1.5" stroke-miterlimit="10" d="M56.046,179.906l7.962,9.24
		c0,0,11.225-11.75-2.126-19.167C59.837,173.91,56.046,179.906,56.046,179.906z"/>
	<path fill="none" stroke="#F6999E" stroke-width="1.5" stroke-miterlimit="10" d="M59.962,199.854l9.445,7.717
		c0,0,9.014-13.521-5.422-18.506C62.654,193.289,59.962,199.854,59.962,199.854z"/>
	<path fill="none" stroke="#F6999E" stroke-width="1.5" stroke-miterlimit="10" d="M67.282,218.816l10.642,5.961
		c0,0,6.529-14.881-8.553-17.283C68.794,211.885,67.282,218.816,67.282,218.816z"/>
	<path fill="none" stroke="#F6999E" stroke-width="1.5" stroke-miterlimit="10" d="M77.784,236.221l11.516,4.023
		c0,0,3.846-15.789-11.425-15.536C78.069,229.133,77.784,236.221,77.784,236.221z"/>
	<path fill="none" stroke="#F6999E" stroke-width="1.5" stroke-miterlimit="10" d="M91.149,251.537l12.039,1.963
		c0,0,1.046-16.217-13.949-13.316C90.199,244.508,91.149,251.537,91.149,251.537z"/>
	<path fill="none" stroke="#F6999E" stroke-width="1.5" stroke-miterlimit="10" d="M106.971,264.3l12.197-0.157
		c0,0-1.786-16.152-16.05-10.691C104.814,257.543,106.971,264.3,106.971,264.3z"/>
	<path fill="none" stroke="#F6999E" stroke-width="1.5" stroke-miterlimit="10" d="M124.769,274.121l11.984-2.272
		c0,0-4.563-15.597-17.663-7.741C121.472,267.842,124.769,274.121,124.769,274.121z"/>
	<path fill="none" stroke="#F6999E" stroke-width="1.5" stroke-miterlimit="10" d="M144.001,280.703l11.408-4.319
		c0,0-7.203-14.567-18.74-4.556C139.663,275.092,144.001,280.703,144.001,280.703z"/>
	<path fill="none" stroke="#F6999E" stroke-width="1.5" stroke-miterlimit="10" d="M164.084,283.846l10.484-6.234
		c0,0-9.622-13.096-19.246-1.232C158.838,279.072,164.084,283.846,164.084,283.846z"/>
	<path fill="none" stroke="#F6999E" stroke-width="1.5" stroke-miterlimit="10" d="M184.408,283.453l9.242-7.961
		c0,0-11.75-11.226-19.168,2.129C178.413,279.662,184.408,283.453,184.408,283.453z"/>
	<path fill="none" stroke="#F6999E" stroke-width="1.5" stroke-miterlimit="10" d="M204.354,279.537l7.72-9.445
		c0,0-13.521-9.015-18.507,5.426C197.793,276.844,204.354,279.537,204.354,279.537z"/>
	<path fill="none" stroke="#F6999E" stroke-width="1.5" stroke-miterlimit="10" d="M223.318,272.217l5.962-10.643
		c0,0-14.88-6.529-17.283,8.557C216.389,270.703,223.318,272.217,223.318,272.217z"/>
	<path fill="none" stroke="#F6999E" stroke-width="1.5" stroke-miterlimit="10" d="M240.724,261.715l4.022-11.516
		c0,0-15.788-3.848-15.534,11.428C233.636,261.428,240.724,261.715,240.724,261.715z"/>
	<path fill="none" stroke="#F6999E" stroke-width="1.5" stroke-miterlimit="10" d="M256.04,248.35l1.962-12.039
		c0,0-16.217-1.047-13.314,13.951C249.011,249.298,256.04,248.35,256.04,248.35z"/>
	<path fill="none" stroke="#F6999E" stroke-width="1.5" stroke-miterlimit="10" d="M268.803,232.527l-0.158-12.196
		c0,0-16.152,1.786-10.689,16.052C262.045,234.683,268.803,232.527,268.803,232.527z"/>
	<path fill="none" stroke="#F6999E" stroke-width="1.5" stroke-miterlimit="10" d="M278.624,214.73l-2.273-11.984
		c0,0-15.597,4.564-7.739,17.664C272.344,218.025,278.624,214.73,278.624,214.73z"/>
	<path fill="none" stroke="#F6999E" stroke-width="1.5" stroke-miterlimit="10" d="M285.206,195.498l-4.32-11.408
		c0,0-14.566,7.203-4.555,18.74C279.593,199.834,285.206,195.498,285.206,195.498z"/>
	<path fill="none" stroke="#F6999E" stroke-width="1.5" stroke-miterlimit="10" d="M288.349,175.415l-6.236-10.485
		c0,0-13.094,9.623-1.231,19.247C283.573,180.66,288.349,175.415,288.349,175.415z"/>
	<path fill="none" stroke="#F6999E" stroke-width="1.5" stroke-miterlimit="10" d="M287.956,155.092l-7.963-9.243
		c0,0-11.224,11.749,2.13,19.168C284.164,161.086,287.956,155.092,287.956,155.092z"/>
	<path fill="none" stroke="#F6999E" stroke-width="1.5" stroke-miterlimit="10" d="M284.04,135.145l-9.447-7.719
		c0,0-9.013,13.52,5.426,18.506C281.347,141.705,284.04,135.145,284.04,135.145z"/>
	<path fill="none" stroke="#F6999E" stroke-width="1.5" stroke-miterlimit="10" d="M276.72,116.181l-10.645-5.962
		c0,0-6.527,14.879,8.557,17.283C275.206,123.109,276.72,116.181,276.72,116.181z"/>
	<path fill="none" stroke="#F6999E" stroke-width="1.5" stroke-miterlimit="10" d="M266.218,98.776l-11.519-4.022
		c0,0-3.845,15.785,11.429,15.534C265.93,105.862,266.218,98.776,266.218,98.776z"/>
	<path fill="none" stroke="#F6999E" stroke-width="1.5" stroke-miterlimit="10" d="M252.853,83.459l-12.042-1.961
		c0,0-1.045,16.214,13.953,13.314C253.8,90.488,252.853,83.459,252.853,83.459z"/>
	<path fill="none" stroke="#F6999E" stroke-width="1.5" stroke-miterlimit="10" d="M237.031,70.697l-12.2,0.158
		c0,0,1.787,16.149,16.054,10.689C239.185,77.454,237.031,70.697,237.031,70.697z"/>
	<path fill="none" stroke="#F6999E" stroke-width="1.5" stroke-miterlimit="10" d="M219.233,60.875l-11.987,2.275
		c0,0,4.564,15.593,17.666,7.738C222.528,67.156,219.233,60.875,219.233,60.875z"/>
	<path fill="none" stroke="#F6999E" stroke-width="1.5" stroke-miterlimit="10" d="M200.001,54.292l-11.41,4.323
		c0,0,7.203,14.562,18.741,4.552C204.336,59.906,200.001,54.292,200.001,54.292z"/>
	<path fill="none" stroke="#F6999E" stroke-width="1.5" stroke-miterlimit="10" d="M169.519,57.379"/>
	<path fill="none" stroke="#F6999E" stroke-width="1.5" stroke-miterlimit="10" d="M169.436,57.454c0,0-2.285,3.829-5.033,5.921
		c0.905,0.38,5.948,4.311,11.896-0.54C173.945,61.583,172.048,60.487,169.436,57.454z"/>
	<path fill="none" stroke="#F6999E" stroke-width="1.5" stroke-miterlimit="10" d="M150.365,59.571c0,0-1.585,4.167-3.928,6.706
		c0.956,0.218,6.605,3.212,11.621-2.597C155.523,62.854,153.465,62.104,150.365,59.571z"/>
	<path fill="none" stroke="#F6999E" stroke-width="1.5" stroke-miterlimit="10" d="M131.952,64.967c0,0-0.837,4.381-2.703,7.286
		c0.979,0.048,7.062,2.017,10.993-4.575C137.603,67.305,135.445,66.924,131.952,64.967z"/>
	<path fill="none" stroke="#F6999E" stroke-width="1.5" stroke-miterlimit="10" d="M114.756,73.479c0,0-0.063,4.459-1.396,7.645
		c0.973-0.121,7.306,0.76,10.031-6.414C120.727,74.801,118.536,74.799,114.756,73.479z"/>
	<path fill="none" stroke="#F6999E" stroke-width="1.5" stroke-miterlimit="10" d="M99.299,84.848c0,0,0.712,4.402-0.048,7.771
		c0.937-0.289,7.326-0.521,8.766-8.061C105.409,85.112,103.251,85.492,99.299,84.848z"/>
	<path fill="none" stroke="#F6999E" stroke-width="1.5" stroke-miterlimit="10" d="M86.051,98.729c0,0,1.466,4.212,1.303,7.66
		c0.872-0.447,7.124-1.784,7.233-9.459C92.114,97.928,90.055,98.676,86.051,98.729z"/>
	<path fill="none" stroke="#F6999E" stroke-width="1.5" stroke-miterlimit="10" d="M75.414,114.697c0,0,2.176,3.895,2.614,7.318
		c0.781-0.592,6.705-2.994,5.48-10.57C81.247,112.856,79.349,113.951,75.414,114.697z"/>
	<path fill="none" stroke="#F6999E" stroke-width="1.5" stroke-miterlimit="10" d="M67.713,132.271c0,0,2.819,3.457,3.845,6.754
		c0.667-0.719,6.084-4.113,3.562-11.361C73.138,129.445,71.458,130.854,67.713,132.271z"/>
	<path fill="none" stroke="#F6999E" stroke-width="1.5" stroke-miterlimit="10" d="M63.181,150.916c0,0,3.376,2.916,4.958,5.983
		c0.533-0.823,5.278-5.106,1.536-11.808C68.032,147.191,66.622,148.869,63.181,150.916z"/>
	<path fill="none" stroke="#F6999E" stroke-width="1.5" stroke-miterlimit="10" d="M61.954,170.064c0,0,3.831,2.285,5.922,5.031
		c0.382-0.904,4.312-5.945-0.537-11.895C66.085,165.555,64.988,167.451,61.954,170.064z"/>
	<path fill="none" stroke="#F6999E" stroke-width="1.5" stroke-miterlimit="10" d="M64.071,189.135c0,0,4.17,1.586,6.706,3.927
		c0.219-0.957,3.214-6.604-2.595-11.621C67.356,183.976,66.605,186.033,64.071,189.135z"/>
	<path fill="none" stroke="#F6999E" stroke-width="1.5" stroke-miterlimit="10" d="M69.468,207.548c0,0,4.383,0.837,7.286,2.702
		c0.05-0.98,2.019-7.062-4.573-10.994C71.808,201.896,71.425,204.053,69.468,207.548z"/>
	<path fill="none" stroke="#F6999E" stroke-width="1.5" stroke-miterlimit="10" d="M77.979,224.744c0,0,4.462,0.062,7.646,1.396
		c-0.122-0.975,0.761-7.307-6.413-10.033C79.303,218.772,79.301,220.963,77.979,224.744z"/>
	<path fill="none" stroke="#F6999E" stroke-width="1.5" stroke-miterlimit="10" d="M89.349,240.201c0,0,4.405-0.713,7.771,0.047
		c-0.289-0.938-0.52-7.326-8.058-8.766C89.614,234.09,89.993,236.248,89.349,240.201z"/>
	<path fill="none" stroke="#F6999E" stroke-width="1.5" stroke-miterlimit="10" d="M103.229,253.449c0,0,4.214-1.467,7.661-1.304
		c-0.447-0.872-1.784-7.124-9.457-7.233C102.43,247.385,103.178,249.443,103.229,253.449z"/>
	<path fill="none" stroke="#F6999E" stroke-width="1.5" stroke-miterlimit="10" d="M119.199,264.086c0,0,3.896-2.177,7.319-2.615
		c-0.593-0.781-2.995-6.705-10.57-5.48C117.358,258.252,118.453,260.149,119.199,264.086z"/>
	<path fill="none" stroke="#F6999E" stroke-width="1.5" stroke-miterlimit="10" d="M136.773,271.787c0,0,3.459-2.82,6.754-3.846
		c-0.719-0.667-4.113-6.084-11.361-3.562C133.947,266.361,135.355,268.04,136.773,271.787z"/>
	<path fill="none" stroke="#F6999E" stroke-width="1.5" stroke-miterlimit="10" d="M155.418,276.32c0,0,2.917-3.379,5.983-4.961
		c-0.823-0.531-5.107-5.277-11.807-1.535C151.692,271.467,153.371,272.876,155.418,276.32z"/>
	<path fill="none" stroke="#F6999E" stroke-width="1.5" stroke-miterlimit="10" d="M174.566,277.547c0,0,2.286-3.834,5.031-5.926
		c-0.903-0.379-5.946-4.309-11.894,0.539C170.055,273.414,171.953,274.51,174.566,277.547z"/>
	<path fill="none" stroke="#F6999E" stroke-width="1.5" stroke-miterlimit="10" d="M193.637,275.43c0,0,1.586-4.174,3.927-6.71
		c-0.956-0.216-6.604-3.21-11.62,2.597C188.477,272.143,190.536,272.893,193.637,275.43z"/>
	<path fill="none" stroke="#F6999E" stroke-width="1.5" stroke-miterlimit="10" d="M212.05,270.033c0,0,0.838-4.387,2.702-7.29
		c-0.979-0.047-7.062-2.015-10.993,4.575C206.397,267.691,208.556,268.072,212.05,270.033z"/>
	<path fill="none" stroke="#F6999E" stroke-width="1.5" stroke-miterlimit="10" d="M229.246,261.521c0,0,0.063-4.467,1.396-7.648
		c-0.973,0.123-7.304-0.758-10.032,6.414C223.273,260.197,225.465,260.197,229.246,261.521z"/>
	<path fill="none" stroke="#F6999E" stroke-width="1.5" stroke-miterlimit="10" d="M244.703,250.152c0,0-0.713-4.41,0.047-7.773
		c-0.937,0.289-7.325,0.521-8.767,8.058C238.592,249.886,240.75,249.506,244.703,250.152z"/>
	<path fill="none" stroke="#F6999E" stroke-width="1.5" stroke-miterlimit="10" d="M268.588,220.301c0,0-2.178-3.899-2.614-7.319
		c-0.781,0.592-6.705,2.995-5.482,10.57C262.754,222.141,264.652,221.047,268.588,220.301z"/>
	<path fill="none" stroke="#F6999E" stroke-width="1.5" stroke-miterlimit="10" d="M276.29,202.727c0,0-2.822-3.463-3.846-6.754
		c-0.667,0.718-6.084,4.113-3.564,11.361C270.864,205.551,272.543,204.145,276.29,202.727z"/>
	<path fill="none" stroke="#F6999E" stroke-width="1.5" stroke-miterlimit="10" d="M280.823,184.082c0,0-3.381-2.92-4.961-5.984
		c-0.531,0.823-5.277,5.107-1.537,11.809C275.97,187.805,277.379,186.129,280.823,184.082z"/>
	<path fill="none" stroke="#F6999E" stroke-width="1.5" stroke-miterlimit="10" d="M282.05,164.934c0,0-3.836-2.289-5.925-5.033
		c-0.38,0.904-4.311,5.947,0.537,11.896C277.916,169.441,279.013,167.547,282.05,164.934z"/>
	<path fill="none" stroke="#F6999E" stroke-width="1.5" stroke-miterlimit="10" d="M279.933,145.862c0,0-4.175-1.587-6.709-3.927
		c-0.217,0.955-3.212,6.604,2.595,11.621C276.645,151.02,277.396,148.963,279.933,145.862z"/>
	<path fill="none" stroke="#F6999E" stroke-width="1.5" stroke-miterlimit="10" d="M274.536,127.449c0,0-4.388-0.838-7.289-2.703
		c-0.048,0.979-2.017,7.062,4.573,10.995C272.193,133.1,272.575,130.943,274.536,127.449z"/>
	<path fill="none" stroke="#F6999E" stroke-width="1.5" stroke-miterlimit="10" d="M266.023,110.252c0,0-4.467-0.062-7.647-1.396
		c0.123,0.973-0.76,7.305,6.413,10.035C264.698,116.223,264.699,114.033,266.023,110.252z"/>
	<path fill="none" stroke="#F6999E" stroke-width="1.5" stroke-miterlimit="10" d="M254.654,94.795c0,0-4.41,0.713-7.773-0.047
		c0.29,0.936,0.52,7.326,8.058,8.768C254.386,100.905,254.007,98.748,254.654,94.795z"/>
	<path fill="none" stroke="#F6999E" stroke-width="1.5" stroke-miterlimit="10" d="M240.774,81.547c0,0-4.22,1.469-7.664,1.303
		c0.448,0.872,1.783,7.125,9.458,7.236C241.57,87.611,240.823,85.553,240.774,81.547z"/>
	<path fill="none" stroke="#F6999E" stroke-width="1.5" stroke-miterlimit="10" d="M224.804,70.91c0,0-3.9,2.18-7.32,2.615
		c0.592,0.779,2.992,6.706,10.57,5.483C226.642,76.744,225.548,74.848,224.804,70.91z"/>
	<path fill="none" stroke="#F6999E" stroke-width="1.5" stroke-miterlimit="10" d="M207.229,63.207c0,0-3.462,2.824-6.755,3.848
		c0.719,0.666,4.111,6.085,11.362,3.564C210.052,68.635,208.646,66.957,207.229,63.207z"/>
	<path fill="none" stroke="#F6999E" stroke-width="1.5" stroke-miterlimit="10" d="M188.583,58.675c0,0-2.918,3.382-5.984,4.962
		c0.824,0.529,5.105,5.278,11.81,1.537C192.306,63.529,190.63,62.121,188.583,58.675z"/>
	<g>
		<path fill="#7697AD" d="M133.764,128.873l0.205,0.801l-21.45,26.004h21.614v1.846h-25.061l-0.226-0.637l21.479-26.168h-20.495
			v-1.846H133.764z"/>
		<path fill="#7697AD" d="M149.763,128.668l13.245,28.855h-2.324l-4.531-9.906h-14.011l-4.516,9.906h-2.324l13.244-28.855H149.763z
			 M155.308,145.771l-6.173-13.494l-6.152,13.494H155.308z"/>
		<path fill="#7697AD" d="M166.515,128.873h5.968c3.131,0,5.503,0.656,7.116,1.969s2.42,3.125,2.42,5.436
			c0,2.762-1.374,4.887-4.122,6.377c4.416,0.957,6.624,3.377,6.624,7.26c0,2.324-0.865,4.174-2.594,5.548
			c-1.73,1.374-4.071,2.062-7.024,2.062h-8.388V128.873z M168.729,130.719v11.424h3.076c5.209,0,7.813-1.9,7.813-5.701
			c0-3.814-2.632-5.723-7.896-5.723H168.729z M168.729,144.008v11.67h5.927c2.447,0,4.307-0.527,5.578-1.58s1.907-2.461,1.907-4.225
			c0-3.91-2.816-5.865-8.449-5.865H168.729z"/>
		<path fill="#7697AD" d="M188.807,128.873h5.968c3.131,0,5.503,0.656,7.116,1.969s2.42,3.125,2.42,5.436
			c0,2.762-1.374,4.887-4.122,6.377c4.416,0.957,6.624,3.377,6.624,7.26c0,2.324-0.865,4.174-2.594,5.548
			c-1.73,1.374-4.071,2.062-7.024,2.062h-8.388V128.873z M191.021,130.719v11.424h3.076c5.209,0,7.813-1.9,7.813-5.701
			c0-3.814-2.632-5.723-7.896-5.723H191.021z M191.021,144.008v11.67h5.927c2.447,0,4.307-0.527,5.578-1.58s1.907-2.461,1.907-4.225
			c0-3.91-2.816-5.865-8.449-5.865H191.021z"/>
		<path fill="#7697AD" d="M232.222,128.873l-11.136,13.27v15.381h-2.215v-15.381l-11.136-13.27h2.677l9.58,11.351l9.525-11.351
			H232.222z"/>
		<path fill="#7697AD" d="M124.774,179.068l13.245,28.854h-2.324l-4.532-9.905h-14.011l-4.516,9.905h-2.324l13.244-28.854H124.774z
			 M130.319,196.172l-6.173-13.494l-6.152,13.494H130.319z"/>
		<path fill="#7697AD" d="M143.7,179.273v26.804h14.171v1.846h-16.386v-28.649H143.7z"/>
		<path fill="#7697AD" d="M163.408,179.273v26.804h14.171v1.846h-16.386v-28.649H163.408z"/>
		<path fill="#7697AD" d="M196.569,179.273v1.846h-13.412v11.464h13.063v1.866h-13.063v11.628h13.74v1.846h-15.955v-28.649H196.569z
			"/>
		<path fill="#7697AD" d="M227.27,179.273v28.649h-1.823l-21.781-25.04v25.04h-2.215v-28.649h1.877l21.728,25.04v-25.04H227.27z"/>
	</g>
</g>
</svg>
