<?xml version="1.0" encoding="utf-8"?>
<!-- Generator: Adobe Illustrator 15.0.0, SVG Export Plug-In . SVG Version: 6.00 Build 0)  -->
<!DOCTYPE svg PUBLIC "-//W3C//DTD SVG 1.1//EN" "http://www.w3.org/Graphics/SVG/1.1/DTD/svg11.dtd">
<svg version="1.1" id="Layer_1" xmlns="http://www.w3.org/2000/svg" xmlns:xlink="http://www.w3.org/1999/xlink" x="0px" y="0px"
	 width="200px" height="200px" viewBox="0 0 200 200" enable-background="new 0 0 200 200" xml:space="preserve">
<path fill="none" stroke="#F5989D" stroke-width="0.8993" stroke-miterlimit="10" d="M97.736,33.136c0,0,20.834-7.195,0-22.033
	c-1.5,1.349-10.492,6.445-9.444,12.891C89.343,30.438,97.736,33.136,97.736,33.136z"/>
<path fill="none" stroke="#F5989D" stroke-width="0.8993" stroke-miterlimit="10" d="M86.245,34.41c0,0,19.268-10.702-3.825-21.698
	c-1.243,1.588-9.214,8.169-7.062,14.333C77.512,33.211,86.245,34.41,86.245,34.41z"/>
<path fill="none" stroke="#F5989D" stroke-width="0.8993" stroke-miterlimit="10" d="M75.15,37.661c0,0,17.116-13.886-7.535-20.705
	c-0.948,1.78-7.654,9.645-4.465,15.342C66.341,37.995,75.15,37.661,75.15,37.661z"/>
<path fill="none" stroke="#F5989D" stroke-width="0.8993" stroke-miterlimit="10" d="M64.789,42.789
	c0,0,14.446-16.648-11.016-19.081c-0.625,1.917-5.863,10.827-1.732,15.883C56.171,44.648,64.789,42.789,64.789,42.789z"/>
<path fill="none" stroke="#F5989D" stroke-width="0.8993" stroke-miterlimit="10" d="M55.475,49.637
	c0,0,11.335-18.902-14.162-16.879c-0.281,1.998-3.894,11.682,1.052,15.944C47.312,52.965,55.475,49.637,55.475,49.637z"/>
<path fill="none" stroke="#F5989D" stroke-width="0.8993" stroke-miterlimit="10" d="M47.493,58c0,0,7.88-20.583-16.879-14.163
	c0.069,2.016-1.807,12.179,3.804,15.519C40.03,62.694,47.493,58,47.493,58z"/>
<path fill="none" stroke="#F5989D" stroke-width="0.8993" stroke-miterlimit="10" d="M41.084,67.621c0,0,4.187-21.639-19.081-11.018
	c0.418,1.974,0.334,12.309,6.441,14.623C34.551,73.541,41.084,67.621,41.084,67.621z"/>
<path fill="none" stroke="#F5989D" stroke-width="0.8993" stroke-miterlimit="10" d="M36.442,78.209c0,0,0.365-22.038-20.706-7.536
	c0.757,1.871,2.47,12.063,8.885,13.282C31.036,85.173,36.442,78.209,36.442,78.209z"/>
<path fill="none" stroke="#F5989D" stroke-width="0.8993" stroke-miterlimit="10" d="M33.71,89.443c0,0-3.467-21.767-21.698-3.828
	c1.068,1.712,4.523,11.453,11.054,11.539C29.596,97.239,33.71,89.443,33.71,89.443z"/>
<path fill="none" stroke="#F5989D" stroke-width="0.8993" stroke-miterlimit="10" d="M32.971,100.979c0,0-7.195-20.834-22.035-0.001
	c1.351,1.5,6.446,10.493,12.891,9.446C30.271,109.372,32.971,100.979,32.971,100.979z"/>
<path fill="none" stroke="#F5989D" stroke-width="0.8993" stroke-miterlimit="10" d="M34.244,112.471
	c0,0-10.702-19.268-21.699,3.824c1.59,1.242,8.169,9.213,14.335,7.062C33.044,121.203,34.244,112.471,34.244,112.471z"/>
<path fill="none" stroke="#F5989D" stroke-width="0.8993" stroke-miterlimit="10" d="M37.494,123.565
	c0,0-13.885-17.118-20.705,7.534c1.782,0.947,9.646,7.654,15.344,4.465C37.83,132.374,37.494,123.565,37.494,123.565z"/>
<path fill="none" stroke="#F5989D" stroke-width="0.8993" stroke-miterlimit="10" d="M42.623,133.927
	c0,0-16.647-14.447-19.082,11.015c1.919,0.624,10.827,5.864,15.885,1.733C44.482,142.543,42.623,133.927,42.623,133.927z"/>
<path fill="none" stroke="#F5989D" stroke-width="0.8993" stroke-miterlimit="10" d="M49.472,143.24
	c0,0-18.903-11.336-16.879,14.162c1.999,0.281,11.681,3.895,15.944-1.052C52.799,151.402,49.472,143.24,49.472,143.24z"/>
<path fill="none" stroke="#F5989D" stroke-width="0.8993" stroke-miterlimit="10" d="M57.834,151.223
	c0,0-20.585-7.881-14.164,16.877c2.018-0.07,12.181,1.809,15.521-3.803C62.528,158.684,57.834,151.223,57.834,151.223z"/>
<path fill="none" stroke="#F5989D" stroke-width="0.8993" stroke-miterlimit="10" d="M67.455,157.633c0,0-21.64-4.188-11.017,19.08
	c1.974-0.42,12.309-0.336,14.623-6.441C73.374,164.164,67.455,157.633,67.455,157.633z"/>
<path fill="none" stroke="#F5989D" stroke-width="0.8993" stroke-miterlimit="10" d="M78.044,162.273c0,0-22.038-0.366-7.536,20.703
	c1.87-0.756,12.063-2.468,13.282-8.881C85.007,167.68,78.044,162.273,78.044,162.273z"/>
<path fill="none" stroke="#F5989D" stroke-width="0.8993" stroke-miterlimit="10" d="M89.277,165.006c0,0-21.767,3.467-3.826,21.697
	c1.711-1.068,11.451-4.524,11.539-11.053C97.073,169.121,89.277,165.006,89.277,165.006z"/>
<path fill="none" stroke="#F5989D" stroke-width="0.8993" stroke-miterlimit="10" d="M100.813,165.746
	c0,0-20.832,7.193-0.001,22.031c1.5-1.35,10.494-6.444,9.444-12.889C109.206,168.443,100.813,165.746,100.813,165.746z"/>
<path fill="none" stroke="#F5989D" stroke-width="0.8993" stroke-miterlimit="10" d="M112.304,164.471
	c0,0-19.268,10.703,3.825,21.698c1.244-1.591,9.214-8.171,7.062-14.333C121.037,165.672,112.304,164.471,112.304,164.471z"/>
<path fill="none" stroke="#F5989D" stroke-width="0.8993" stroke-miterlimit="10" d="M123.399,161.219
	c0,0-17.117,13.888,7.534,20.706c0.948-1.782,7.654-9.646,4.467-15.342C132.208,160.887,123.399,161.219,123.399,161.219z"/>
<path fill="none" stroke="#F5989D" stroke-width="0.8993" stroke-miterlimit="10" d="M133.761,156.094
	c0,0-14.446,16.646,11.016,19.08c0.623-1.92,5.862-10.828,1.734-15.885C142.378,154.234,133.761,156.094,133.761,156.094z"/>
<path fill="none" stroke="#F5989D" stroke-width="0.8993" stroke-miterlimit="10" d="M143.074,149.244
	c0,0-11.335,18.902,14.162,16.877c0.28-1.998,3.894-11.681-1.052-15.943C151.236,145.918,143.074,149.244,143.074,149.244z"/>
<path fill="none" stroke="#F5989D" stroke-width="0.8993" stroke-miterlimit="10" d="M151.056,140.881
	c0,0-7.879,20.584,16.876,14.163c-0.068-2.018,1.811-12.181-3.801-15.519C158.519,136.188,151.056,140.881,151.056,140.881z"/>
<path fill="none" stroke="#F5989D" stroke-width="0.8993" stroke-miterlimit="10" d="M157.467,131.26c0,0-4.188,21.64,19.079,11.017
	c-0.419-1.974-0.334-12.31-6.438-14.623C164,125.342,157.467,131.26,157.467,131.26z"/>
<path fill="none" stroke="#F5989D" stroke-width="0.8993" stroke-miterlimit="10" d="M162.106,120.672
	c0,0-0.364,22.037,20.703,7.535c-0.756-1.871-2.467-12.063-8.88-13.282C167.515,113.709,162.106,120.672,162.106,120.672z"/>
<path fill="none" stroke="#F5989D" stroke-width="0.8993" stroke-miterlimit="10" d="M164.839,109.438
	c0,0,3.468,21.767,21.696,3.825c-1.066-1.711-4.521-11.451-11.051-11.538C168.956,101.643,164.839,109.438,164.839,109.438z"/>
<path fill="none" stroke="#F5989D" stroke-width="0.8993" stroke-miterlimit="10" d="M165.579,97.901c0,0,7.194,20.833,22.032,0
	c-1.351-1.5-6.443-10.492-12.888-9.444C168.278,89.508,165.579,97.901,165.579,97.901z"/>
<path fill="none" stroke="#F5989D" stroke-width="0.8993" stroke-miterlimit="10" d="M164.306,86.412
	c0,0,10.703,19.267,21.696-3.826c-1.59-1.244-8.169-9.214-14.333-7.063C165.505,77.678,164.306,86.412,164.306,86.412z"/>
<path fill="none" stroke="#F5989D" stroke-width="0.8993" stroke-miterlimit="10" d="M161.055,75.316
	c0,0,13.888,17.116,20.703-7.535c-1.782-0.949-9.644-7.657-15.341-4.468C160.721,66.507,161.055,75.316,161.055,75.316z"/>
<path fill="none" stroke="#F5989D" stroke-width="0.8993" stroke-miterlimit="10" d="M155.926,64.955
	c0,0,16.648,14.445,19.083-11.016c-1.92-0.625-10.828-5.865-15.883-1.735C154.068,56.337,155.926,64.955,155.926,64.955z"/>
<path fill="none" stroke="#F5989D" stroke-width="0.8993" stroke-miterlimit="10" d="M149.077,55.641
	c0,0,18.904,11.335,16.878-14.162c-2-0.282-11.681-3.896-15.944,1.048C145.752,47.477,149.077,55.641,149.077,55.641z"/>
<path fill="none" stroke="#F5989D" stroke-width="0.8993" stroke-miterlimit="10" d="M140.716,47.659c0,0,20.585,7.88,14.163-16.878
	c-2.02,0.069-12.182-1.808-15.521,3.801C136.021,40.196,140.716,47.659,140.716,47.659z"/>
<path fill="none" stroke="#F5989D" stroke-width="0.8993" stroke-miterlimit="10" d="M131.095,41.249
	c0,0,21.639,4.187,11.016-19.081c-1.975,0.419-12.308,0.334-14.623,6.439C125.177,34.715,131.095,41.249,131.095,41.249z"/>
<path fill="none" stroke="#F5989D" stroke-width="0.8993" stroke-miterlimit="10" d="M120.506,36.608c0,0,22.038,0.365,7.536-20.705
	c-1.872,0.756-12.064,2.467-13.283,8.88C113.544,31.201,120.506,36.608,120.506,36.608z"/>
<path fill="none" stroke="#F5989D" stroke-width="0.8993" stroke-miterlimit="10" d="M109.272,33.875c0,0,21.768-3.468,3.825-21.698
	c-1.711,1.069-11.451,4.525-11.538,11.052C101.476,29.759,109.272,33.875,109.272,33.875z"/>
<path fill="none" stroke="#F5989D" stroke-width="0.8993" stroke-miterlimit="10" d="M82.42,12.712c0,0,5.313-16.691,15.316-1.609"
	/>
<path fill="none" stroke="#F5989D" stroke-width="0.8993" stroke-miterlimit="10" d="M67.615,16.956c0,0,2.335-17.36,14.805-4.244"
	/>
<path fill="none" stroke="#F5989D" stroke-width="0.8993" stroke-miterlimit="10" d="M53.773,23.708c0,0-0.716-17.502,13.842-6.751"
	/>
<path fill="none" stroke="#F5989D" stroke-width="0.8993" stroke-miterlimit="10" d="M41.312,32.758c0,0-3.743-17.111,12.461-9.05"
	/>
<path fill="none" stroke="#F5989D" stroke-width="0.8993" stroke-miterlimit="10" d="M30.614,43.837c0,0-6.659-16.202,10.698-11.079
	"/>
<path fill="none" stroke="#F5989D" stroke-width="0.8993" stroke-miterlimit="10" d="M22.003,56.604c0,0-9.371-14.799,8.611-12.767"
	/>
<path fill="none" stroke="#F5989D" stroke-width="0.8993" stroke-miterlimit="10" d="M15.736,70.673c0,0-11.797-12.947,6.267-14.069
	"/>
<path fill="none" stroke="#F5989D" stroke-width="0.8993" stroke-miterlimit="10" d="M12.012,85.615c0,0-13.866-10.701,3.725-14.942
	"/>
<path fill="none" stroke="#F5989D" stroke-width="0.8993" stroke-miterlimit="10" d="M10.936,100.978c0,0-15.514-8.13,1.076-15.363"
	/>
<path fill="none" stroke="#F5989D" stroke-width="0.8993" stroke-miterlimit="10" d="M12.545,116.295c0,0-16.69-5.312-1.609-15.317"
	/>
<path fill="none" stroke="#F5989D" stroke-width="0.8993" stroke-miterlimit="10" d="M16.789,131.1c0,0-17.358-2.334-4.244-14.805"
	/>
<path fill="none" stroke="#F5989D" stroke-width="0.8993" stroke-miterlimit="10" d="M23.541,144.941c0,0-17.502,0.717-6.752-13.842
	"/>
<path fill="none" stroke="#F5989D" stroke-width="0.8993" stroke-miterlimit="10" d="M32.593,157.402c0,0-17.111,3.743-9.052-12.461
	"/>
<path fill="none" stroke="#F5989D" stroke-width="0.8993" stroke-miterlimit="10" d="M43.67,168.1c0,0-16.2,6.658-11.077-10.697"/>
<path fill="none" stroke="#F5989D" stroke-width="0.8993" stroke-miterlimit="10" d="M56.438,176.713c0,0-14.799,9.371-12.769-8.613
	"/>
<path fill="none" stroke="#F5989D" stroke-width="0.8993" stroke-miterlimit="10" d="M70.508,182.977
	c0,0-12.946,11.799-14.069-6.264"/>
<path fill="none" stroke="#F5989D" stroke-width="0.8993" stroke-miterlimit="10" d="M85.451,186.703
	c0,0-10.702,13.867-14.943-3.727"/>
<path fill="none" stroke="#F5989D" stroke-width="0.8993" stroke-miterlimit="10" d="M100.812,187.777
	c0,0-8.129,15.516-15.361-1.074"/>
<path fill="none" stroke="#F5989D" stroke-width="0.8993" stroke-miterlimit="10" d="M116.129,186.169c0,0-5.313,16.69-15.316,1.608
	"/>
<path fill="none" stroke="#F5989D" stroke-width="0.8993" stroke-miterlimit="10" d="M130.934,181.925c0,0-2.334,17.36-14.805,4.244
	"/>
<path fill="none" stroke="#F5989D" stroke-width="0.8993" stroke-miterlimit="10" d="M144.776,175.174
	c0,0,0.718,17.502-13.843,6.751"/>
<path fill="none" stroke="#F5989D" stroke-width="0.8993" stroke-miterlimit="10" d="M157.236,166.121c0,0,3.742,17.111-12.46,9.053
	"/>
<path fill="none" stroke="#F5989D" stroke-width="0.8993" stroke-miterlimit="10" d="M167.932,155.044c0,0,6.662,16.2-10.695,11.077
	"/>
<path fill="none" stroke="#F5989D" stroke-width="0.8993" stroke-miterlimit="10" d="M176.546,142.276
	c0,0,9.373,14.797-8.614,12.768"/>
<path fill="none" stroke="#F5989D" stroke-width="0.8993" stroke-miterlimit="10" d="M182.81,128.207c0,0,11.8,12.945-6.264,14.069"
	/>
<path fill="none" stroke="#F5989D" stroke-width="0.8993" stroke-miterlimit="10" d="M186.535,113.264c0,0,13.868,10.7-3.726,14.943
	"/>
<path fill="none" stroke="#F5989D" stroke-width="0.8993" stroke-miterlimit="10" d="M187.611,97.901c0,0,15.516,8.128-1.076,15.362
	"/>
<path fill="none" stroke="#F5989D" stroke-width="0.8993" stroke-miterlimit="10" d="M186.002,82.585c0,0,16.691,5.311,1.609,15.316
	"/>
<path fill="none" stroke="#F5989D" stroke-width="0.8993" stroke-miterlimit="10" d="M181.758,67.782c0,0,17.359,2.331,4.244,14.804
	"/>
<path fill="none" stroke="#F5989D" stroke-width="0.8993" stroke-miterlimit="10" d="M175.009,53.939c0,0,17.498-0.718,6.749,13.843
	"/>
<path fill="none" stroke="#F5989D" stroke-width="0.8993" stroke-miterlimit="10" d="M165.955,41.479c0,0,17.11-3.746,9.054,12.459"
	/>
<path fill="none" stroke="#F5989D" stroke-width="0.8993" stroke-miterlimit="10" d="M154.879,30.781c0,0,16.198-6.66,11.076,10.699
	"/>
<path fill="none" stroke="#F5989D" stroke-width="0.8993" stroke-miterlimit="10" d="M142.11,22.168c0,0,14.797-9.371,12.769,8.613"
	/>
<path fill="none" stroke="#F5989D" stroke-width="0.8993" stroke-miterlimit="10" d="M128.042,15.903
	c0,0,12.944-11.798,14.068,6.265"/>
<path fill="none" stroke="#F5989D" stroke-width="0.8993" stroke-miterlimit="10" d="M113.098,12.177c0,0,10.7-13.867,14.944,3.726"
	/>
<path fill="none" stroke="#F5989D" stroke-width="0.8993" stroke-miterlimit="10" d="M97.736,11.103c0,0,8.129-15.514,15.361,1.075"
	/>
<path fill="none" stroke="#F5989D" stroke-width="0.8993" stroke-miterlimit="10" d="M104.021,29.686l-6.284,3.74
	c0,0,5.769,7.851,11.536,0.739C107.164,32.548,104.021,29.686,104.021,29.686z"/>
<path fill="none" stroke="#F5989D" stroke-width="0.8993" stroke-miterlimit="10" d="M104.021,29.686l-6.284,3.74
	c0,0,5.769,7.851,11.536,0.739C107.164,32.548,104.021,29.686,104.021,29.686z"/>
<path fill="none" stroke="#F5989D" stroke-width="0.8993" stroke-miterlimit="10" d="M91.835,29.922l-5.54,4.773
	c0,0,7.046,6.729,11.491-1.275C95.43,32.194,91.835,29.922,91.835,29.922z"/>
<path fill="none" stroke="#F5989D" stroke-width="0.8993" stroke-miterlimit="10" d="M79.877,32.27l-4.628,5.663
	c0,0,8.107,5.404,11.096-3.251C83.812,33.884,79.877,32.27,79.877,32.27z"/>
<path fill="none" stroke="#F5989D" stroke-width="0.8993" stroke-miterlimit="10" d="M68.507,36.659l-3.574,6.38
	c0,0,8.923,3.914,10.363-5.128C72.661,37.564,68.507,36.659,68.507,36.659z"/>
<path fill="none" stroke="#F5989D" stroke-width="0.8993" stroke-miterlimit="10" d="M58.072,42.955l-2.41,6.904
	c0,0,9.465,2.306,9.313-6.85C62.321,43.126,58.072,42.955,58.072,42.955z"/>
<path fill="none" stroke="#F5989D" stroke-width="0.8993" stroke-miterlimit="10" d="M48.89,50.968l-1.176,7.216
	c0,0,9.722,0.628,7.983-8.362C53.104,50.398,48.89,50.968,48.89,50.968z"/>
<path fill="none" stroke="#F5989D" stroke-width="0.8993" stroke-miterlimit="10" d="M41.237,60.454l0.097,7.312
	c0,0,9.683-1.071,6.41-9.622C45.29,59.16,41.237,60.454,41.237,60.454z"/>
<path fill="none" stroke="#F5989D" stroke-width="0.8993" stroke-miterlimit="10" d="M35.35,71.124l1.364,7.183
	c0,0,9.35-2.735,4.641-10.588C39.115,69.147,35.35,71.124,35.35,71.124z"/>
<path fill="none" stroke="#F5989D" stroke-width="0.8993" stroke-miterlimit="10" d="M31.404,82.654l2.59,6.837
	c0,0,8.733-4.318,2.732-11.233C34.77,80.053,31.404,82.654,31.404,82.654z"/>
<path fill="none" stroke="#F5989D" stroke-width="0.8993" stroke-miterlimit="10" d="M29.52,94.694l3.739,6.284
	c0,0,7.85-5.767,0.74-11.537C32.383,91.549,29.52,94.694,29.52,94.694z"/>
<path fill="none" stroke="#F5989D" stroke-width="0.8993" stroke-miterlimit="10" d="M29.756,106.879l4.772,5.54
	c0,0,6.729-7.045-1.274-11.491C32.028,103.285,29.756,106.879,29.756,106.879z"/>
<path fill="none" stroke="#F5989D" stroke-width="0.8993" stroke-miterlimit="10" d="M32.103,118.838l5.663,4.627
	c0,0,5.404-8.106-3.25-11.095C33.717,114.902,32.103,118.838,32.103,118.838z"/>
<path fill="none" stroke="#F5989D" stroke-width="0.8993" stroke-miterlimit="10" d="M36.492,130.207l6.38,3.574
	c0,0,3.915-8.922-5.129-10.362C37.398,126.051,36.492,130.207,36.492,130.207z"/>
<path fill="none" stroke="#F5989D" stroke-width="0.8993" stroke-miterlimit="10" d="M42.789,140.641l6.903,2.413
	c0,0,2.306-9.466-6.85-9.313C42.959,136.393,42.789,140.641,42.789,140.641z"/>
<path fill="none" stroke="#F5989D" stroke-width="0.8993" stroke-miterlimit="10" d="M50.802,149.824l7.218,1.177
	c0,0,0.626-9.723-8.364-7.983C50.231,145.609,50.802,149.824,50.802,149.824z"/>
<path fill="none" stroke="#F5989D" stroke-width="0.8993" stroke-miterlimit="10" d="M60.286,157.477l7.312-0.096
	c0,0-1.071-9.683-9.621-6.409C58.994,153.425,60.286,157.477,60.286,157.477z"/>
<path fill="none" stroke="#F5989D" stroke-width="0.8993" stroke-miterlimit="10" d="M70.957,163.364l7.186-1.362
	c0,0-2.736-9.351-10.59-4.641C68.98,159.6,70.957,163.364,70.957,163.364z"/>
<path fill="none" stroke="#F5989D" stroke-width="0.8993" stroke-miterlimit="10" d="M82.487,167.311l6.841-2.59
	c0,0-4.319-8.734-11.236-2.73C79.887,163.945,82.487,167.311,82.487,167.311z"/>
<path fill="none" stroke="#F5989D" stroke-width="0.8993" stroke-miterlimit="10" d="M94.527,169.195l6.285-3.738
	c0,0-5.769-7.852-11.536-0.739C91.383,166.333,94.527,169.195,94.527,169.195z"/>
<path fill="none" stroke="#F5989D" stroke-width="0.8993" stroke-miterlimit="10" d="M106.714,168.959l5.54-4.771
	c0,0-7.045-6.731-11.491,1.274C103.118,166.686,106.714,168.959,106.714,168.959z"/>
<path fill="none" stroke="#F5989D" stroke-width="0.8993" stroke-miterlimit="10" d="M118.672,166.611l4.628-5.662
	c0,0-8.107-5.404-11.096,3.252C114.738,164.997,118.672,166.611,118.672,166.611z"/>
<path fill="none" stroke="#F5989D" stroke-width="0.8993" stroke-miterlimit="10" d="M130.04,162.223l3.576-6.38
	c0,0-8.92-3.915-10.363,5.13C125.886,161.315,130.04,162.223,130.04,162.223z"/>
<path fill="none" stroke="#F5989D" stroke-width="0.8993" stroke-miterlimit="10" d="M140.477,155.926l2.41-6.903
	c0,0-9.465-2.308-9.313,6.851C136.228,155.754,140.477,155.926,140.477,155.926z"/>
<path fill="none" stroke="#F5989D" stroke-width="0.8993" stroke-miterlimit="10" d="M149.66,147.914l1.176-7.219
	c0,0-9.724-0.627-7.981,8.364C145.444,148.482,149.66,147.914,149.66,147.914z"/>
<path fill="none" stroke="#F5989D" stroke-width="0.8993" stroke-miterlimit="10" d="M157.311,138.428l-0.095-7.312
	c0,0-9.684,1.072-6.408,9.624C153.26,139.719,157.311,138.428,157.311,138.428z"/>
<path fill="none" stroke="#F5989D" stroke-width="0.8993" stroke-miterlimit="10" d="M163.199,127.758l-1.362-7.186
	c0,0-9.352,2.736-4.641,10.59C159.434,129.732,163.199,127.758,163.199,127.758z"/>
<path fill="none" stroke="#F5989D" stroke-width="0.8993" stroke-miterlimit="10" d="M167.146,116.227l-2.591-6.839
	c0,0-8.732,4.317-2.729,11.235C163.78,118.826,167.146,116.227,167.146,116.227z"/>
<path fill="none" stroke="#F5989D" stroke-width="0.8993" stroke-miterlimit="10" d="M169.029,104.188l-3.74-6.288
	c0,0-7.849,5.77-0.736,11.54C166.166,107.331,169.029,104.188,169.029,104.188z"/>
<path fill="none" stroke="#F5989D" stroke-width="0.8993" stroke-miterlimit="10" d="M168.794,92.001l-4.774-5.541
	c0,0-6.729,7.043,1.277,11.491C166.521,95.596,168.794,92.001,168.794,92.001z"/>
<path fill="none" stroke="#F5989D" stroke-width="0.8993" stroke-miterlimit="10" d="M166.446,80.042l-5.664-4.627
	c0,0-5.403,8.105,3.254,11.095C164.832,83.976,166.446,80.042,166.446,80.042z"/>
<path fill="none" stroke="#F5989D" stroke-width="0.8993" stroke-miterlimit="10" d="M162.057,68.674l-6.382-3.574
	c0,0-3.912,8.92,5.131,10.361C161.149,72.828,162.057,68.674,162.057,68.674z"/>
<path fill="none" stroke="#F5989D" stroke-width="0.8993" stroke-miterlimit="10" d="M155.763,58.239l-6.908-2.412
	c0,0-2.304,9.465,6.854,9.313C155.587,62.487,155.763,58.239,155.763,58.239z"/>
<path fill="none" stroke="#F5989D" stroke-width="0.8993" stroke-miterlimit="10" d="M147.748,49.056l-7.219-1.176
	c0,0-0.628,9.721,8.365,7.982C148.316,53.27,147.748,49.056,147.748,49.056z"/>
<path fill="none" stroke="#F5989D" stroke-width="0.8993" stroke-miterlimit="10" d="M138.264,41.404l-7.315,0.095
	c0,0,1.07,9.682,9.626,6.409C139.553,45.455,138.264,41.404,138.264,41.404z"/>
<path fill="none" stroke="#F5989D" stroke-width="0.8993" stroke-miterlimit="10" d="M127.592,35.515l-7.186,1.365
	c0,0,2.735,9.348,10.591,4.639C129.568,39.281,127.592,35.515,127.592,35.515z"/>
<path fill="none" stroke="#F5989D" stroke-width="0.8993" stroke-miterlimit="10" d="M116.062,31.569l-6.842,2.592
	c0,0,4.318,8.731,11.235,2.729C118.66,34.935,116.062,31.569,116.062,31.569z"/>
<path fill="none" stroke="#F5989D" stroke-width="0.8993" stroke-miterlimit="10" d="M97.786,33.419"/>
<path fill="none" stroke="#F5989D" stroke-width="0.8993" stroke-miterlimit="10" d="M97.736,33.465c0,0-1.37,2.295-3.018,3.549
	c0.542,0.228,3.566,2.584,7.132-0.323C100.439,35.939,99.303,35.283,97.736,33.465z"/>
<path fill="none" stroke="#F5989D" stroke-width="0.8993" stroke-miterlimit="10" d="M86.303,34.733c0,0-0.95,2.499-2.354,4.02
	c0.574,0.131,3.96,1.926,6.968-1.557C89.396,36.702,88.162,36.253,86.303,34.733z"/>
<path fill="none" stroke="#F5989D" stroke-width="0.8993" stroke-miterlimit="10" d="M75.263,37.969c0,0-0.5,2.626-1.619,4.368
	c0.586,0.029,4.234,1.208,6.59-2.743C78.651,39.371,77.358,39.142,75.263,37.969z"/>
<path fill="none" stroke="#F5989D" stroke-width="0.8993" stroke-miterlimit="10" d="M64.954,43.072c0,0-0.038,2.672-0.838,4.583
	c0.584-0.073,4.381,0.456,6.015-3.846C68.534,43.864,67.22,43.864,64.954,43.072z"/>
<path fill="none" stroke="#F5989D" stroke-width="0.8993" stroke-miterlimit="10" d="M55.688,49.887c0,0,0.427,2.64-0.029,4.66
	c0.561-0.173,4.393-0.312,5.255-4.832C59.351,50.046,58.057,50.274,55.688,49.887z"/>
<path fill="none" stroke="#F5989D" stroke-width="0.8993" stroke-miterlimit="10" d="M47.744,58.209c0,0,0.879,2.526,0.782,4.594
	c0.521-0.269,4.271-1.07,4.336-5.671C51.38,57.73,50.145,58.178,47.744,58.209z"/>
<path fill="none" stroke="#F5989D" stroke-width="0.8993" stroke-miterlimit="10" d="M41.367,67.784c0,0,1.304,2.335,1.568,4.388
	c0.467-0.354,4.02-1.795,3.285-6.337C44.864,66.68,43.726,67.336,41.367,67.784z"/>
<path fill="none" stroke="#F5989D" stroke-width="0.8993" stroke-miterlimit="10" d="M36.75,78.32c0,0,1.69,2.073,2.305,4.049
	c0.399-0.431,3.648-2.466,2.137-6.812C40.002,76.626,38.996,77.47,36.75,78.32z"/>
<path fill="none" stroke="#F5989D" stroke-width="0.8993" stroke-miterlimit="10" d="M34.032,89.499c0,0,2.025,1.748,2.973,3.587
	c0.32-0.494,3.165-3.062,0.921-7.079C36.942,87.265,36.097,88.271,34.032,89.499z"/>
<path fill="none" stroke="#F5989D" stroke-width="0.8993" stroke-miterlimit="10" d="M33.298,100.978c0,0,2.296,1.37,3.55,3.018
	c0.229-0.543,2.585-3.566-0.322-7.133C35.774,98.274,35.116,99.412,33.298,100.978z"/>
<path fill="none" stroke="#F5989D" stroke-width="0.8993" stroke-miterlimit="10" d="M34.566,112.412c0,0,2.5,0.951,4.021,2.354
	c0.132-0.573,1.927-3.96-1.555-6.967C36.537,109.318,36.086,110.553,34.566,112.412z"/>
<path fill="none" stroke="#F5989D" stroke-width="0.8993" stroke-miterlimit="10" d="M37.803,123.451c0,0,2.628,0.502,4.367,1.62
	c0.03-0.588,1.211-4.234-2.741-6.591C39.205,120.062,38.976,121.355,37.803,123.451z"/>
<path fill="none" stroke="#F5989D" stroke-width="0.8993" stroke-miterlimit="10" d="M42.905,133.762c0,0,2.675,0.037,4.583,0.836
	c-0.073-0.584,0.457-4.379-3.844-6.015C43.698,130.181,43.697,131.494,42.905,133.762z"/>
<path fill="none" stroke="#F5989D" stroke-width="0.8993" stroke-miterlimit="10" d="M49.722,143.027c0,0,2.642-0.428,4.658,0.029
	c-0.173-0.562-0.311-4.393-4.83-5.256C49.881,139.363,50.106,140.658,49.722,143.027z"/>
<path fill="none" stroke="#F5989D" stroke-width="0.8993" stroke-miterlimit="10" d="M58.044,150.972c0,0,2.525-0.88,4.593-0.782
	c-0.269-0.523-1.069-4.271-5.669-4.337C57.564,147.334,58.013,148.57,58.044,150.972z"/>
<path fill="none" stroke="#F5989D" stroke-width="0.8993" stroke-miterlimit="10" d="M67.618,157.349c0,0,2.336-1.306,4.389-1.567
	c-0.355-0.47-1.797-4.021-6.338-3.287C66.514,153.85,67.171,154.988,67.618,157.349z"/>
<path fill="none" stroke="#F5989D" stroke-width="0.8993" stroke-miterlimit="10" d="M78.154,161.965c0,0,2.073-1.691,4.05-2.307
	c-0.431-0.398-2.467-3.646-6.812-2.135C76.46,158.712,77.305,159.719,78.154,161.965z"/>
<path fill="none" stroke="#F5989D" stroke-width="0.8993" stroke-miterlimit="10" d="M89.333,164.684c0,0,1.749-2.027,3.588-2.975
	c-0.495-0.318-3.063-3.165-7.08-0.92C87.099,161.771,88.105,162.617,89.333,164.684z"/>
<path fill="none" stroke="#F5989D" stroke-width="0.8993" stroke-miterlimit="10" d="M100.812,165.418c0,0,1.37-2.299,3.017-3.553
	c-0.543-0.227-3.564-2.582-7.131,0.323C98.108,162.939,99.246,163.598,100.812,165.418z"/>
<path fill="none" stroke="#F5989D" stroke-width="0.8993" stroke-miterlimit="10" d="M112.247,164.148c0,0,0.95-2.502,2.354-4.021
	c-0.574-0.13-3.96-1.925-6.968,1.555C109.152,162.178,110.387,162.627,112.247,164.148z"/>
<path fill="none" stroke="#F5989D" stroke-width="0.8993" stroke-miterlimit="10" d="M123.286,160.914c0,0,0.502-2.631,1.618-4.371
	c-0.585-0.027-4.232-1.207-6.591,2.742C119.897,159.509,121.191,159.738,123.286,160.914z"/>
<path fill="none" stroke="#F5989D" stroke-width="0.8993" stroke-miterlimit="10" d="M133.595,155.811c0,0,0.038-2.678,0.837-4.586
	c-0.583,0.074-4.377-0.454-6.015,3.846C130.014,155.016,131.327,155.016,133.595,155.811z"/>
<path fill="none" stroke="#F5989D" stroke-width="0.8993" stroke-miterlimit="10" d="M142.861,148.994c0,0-0.427-2.645,0.028-4.66
	c-0.562,0.172-4.392,0.312-5.254,4.83C139.197,148.834,140.491,148.607,142.861,148.994z"/>
<path fill="none" stroke="#F5989D" stroke-width="0.8993" stroke-miterlimit="10" d="M157.183,131.097c0,0-1.307-2.338-1.566-4.388
	c-0.47,0.355-4.022,1.795-3.287,6.338C153.685,132.199,154.821,131.545,157.183,131.097z"/>
<path fill="none" stroke="#F5989D" stroke-width="0.8993" stroke-miterlimit="10" d="M161.801,120.561c0,0-1.694-2.076-2.306-4.049
	c-0.4,0.43-3.649,2.467-2.138,6.811C158.547,122.254,159.555,121.41,161.801,120.561z"/>
<path fill="none" stroke="#F5989D" stroke-width="0.8993" stroke-miterlimit="10" d="M164.517,109.383c0,0-2.026-1.751-2.974-3.588
	c-0.317,0.494-3.164,3.062-0.92,7.079C161.606,111.615,162.453,110.609,164.517,109.383z"/>
<path fill="none" stroke="#F5989D" stroke-width="0.8993" stroke-miterlimit="10" d="M165.254,97.903c0,0-2.301-1.374-3.555-3.018
	c-0.228,0.542-2.583,3.565,0.324,7.132C162.775,100.605,163.432,99.469,165.254,97.903z"/>
<path fill="none" stroke="#F5989D" stroke-width="0.8993" stroke-miterlimit="10" d="M163.983,86.469c0,0-2.502-0.952-4.023-2.354
	c-0.128,0.573-1.925,3.958,1.557,6.967C162.012,89.56,162.462,88.327,163.983,86.469z"/>
<path fill="none" stroke="#F5989D" stroke-width="0.8993" stroke-miterlimit="10" d="M160.749,75.429c0,0-2.631-0.502-4.37-1.621
	c-0.028,0.586-1.209,4.234,2.742,6.592C159.344,78.817,159.573,77.524,160.749,75.429z"/>
<path fill="none" stroke="#F5989D" stroke-width="0.8993" stroke-miterlimit="10" d="M155.645,65.119c0,0-2.679-0.038-4.586-0.837
	c0.075,0.583-0.455,4.38,3.846,6.016C154.851,68.698,154.851,67.385,155.645,65.119z"/>
<path fill="none" stroke="#F5989D" stroke-width="0.8993" stroke-miterlimit="10" d="M148.828,55.852c0,0-2.645,0.428-4.659-0.028
	c0.173,0.561,0.311,4.392,4.83,5.256C148.667,59.515,148.439,58.222,148.828,55.852z"/>
<path fill="none" stroke="#F5989D" stroke-width="0.8993" stroke-miterlimit="10" d="M140.508,47.909c0,0-2.531,0.881-4.595,0.781
	c0.268,0.523,1.068,4.272,5.671,4.339C140.984,51.544,140.536,50.31,140.508,47.909z"/>
<path fill="none" stroke="#F5989D" stroke-width="0.8993" stroke-miterlimit="10" d="M130.931,41.532c0,0-2.339,1.307-4.389,1.568
	c0.355,0.468,1.794,4.021,6.337,3.288C132.033,45.03,131.379,43.892,130.931,41.532z"/>
<path fill="none" stroke="#F5989D" stroke-width="0.8993" stroke-miterlimit="10" d="M120.395,36.914c0,0-2.076,1.693-4.05,2.307
	c0.432,0.398,2.465,3.647,6.813,2.137C122.087,40.167,121.243,39.161,120.395,36.914z"/>
<path fill="none" stroke="#F5989D" stroke-width="0.8993" stroke-miterlimit="10" d="M109.216,34.196c0,0-1.749,2.029-3.588,2.975
	c0.494,0.319,3.062,3.165,7.081,0.923C111.448,37.106,110.443,36.262,109.216,34.196z"/>
<rect x="55.438" y="76.288" fill="none" width="85.692" height="48.283"/>
<text transform="matrix(1 0 0 1 56.1533 93.4712)"><tspan x="0" y="0" fill="#8DD7F7" font-family="'GillSans-Light'" font-size="25.1805" letter-spacing="2">ZABBY</tspan><tspan x="1.002" y="30.216" fill="#8DD7F7" font-family="'GillSans-Light'" font-size="25.1805" letter-spacing="2">ALLEN</tspan></text>
</svg>
